STARTFONT 2.3
FONT -FontForge-Righteous-Book-R-Normal--11-110-72-72-P-59-ISO10646-1
SIZE 11 72 72  4
FONTBOUNDINGBOX 14 15 -2 -3
COMMENT "Generated by fontforge, http://fontforge.sourceforge.net"
COMMENT "Copyright (c) 2011 by Brian J. Bonislawsky DBA Astigmatic (AOETI) (astigma@astigmatic.com), with ReservedFont Name "Righteous""
STARTPROPERTIES 40
FOUNDRY "FontForge"
FAMILY_NAME "Righteous"
WEIGHT_NAME "Book"
SLANT "R"
SETWIDTH_NAME "Normal"
ADD_STYLE_NAME ""
PIXEL_SIZE 11
POINT_SIZE 110
RESOLUTION_X 72
RESOLUTION_Y 72
SPACING "P"
AVERAGE_WIDTH 59
CHARSET_REGISTRY "ISO10646"
CHARSET_ENCODING "1"
FONTNAME_REGISTRY ""
CHARSET_COLLECTIONS "ISO8859-2 ISO8859-9 ISO8859-4 ISO10646-1"
BITS_PER_PIXEL 4
FONT_NAME "Righteous-Regular"
FACE_NAME "Righteous"
COPYRIGHT "Copyright (c) 2011 by Brian J. Bonislawsky DBA Astigmatic (AOETI) (astigma@astigmatic.com), with ReservedFont Name "Righteous""
FONT_VERSION "1.000"
FONT_ASCENT 9
FONT_DESCENT 2
UNDERLINE_POSITION -1
UNDERLINE_THICKNESS 1
X_HEIGHT 5
CAP_HEIGHT 7
RAW_ASCENT 799
RAW_DESCENT 200
NORM_SPACE 3
RELATIVE_WEIGHT 40
RELATIVE_SETWIDTH 50
SUPERSCRIPT_X 0
SUPERSCRIPT_Y 5
SUPERSCRIPT_SIZE 7
SUBSCRIPT_X 0
SUBSCRIPT_Y 1
SUBSCRIPT_SIZE 7
AVG_LOWERCASE_WIDTH 59
AVG_UPPERCASE_WIDTH 69
ENDPROPERTIES
CHARS 372
STARTCHAR space
ENCODING 32
SWIDTH 279 0
DWIDTH 3 0
BBX 1 1 0 0
BITMAP
00
ENDCHAR
STARTCHAR exclam
ENCODING 33
SWIDTH 274 0
DWIDTH 3 0
BBX 3 9 0 -1
BITMAP
4B40
5F60
4F50
4F40
3F30
2F20
1710
5F60
0500
ENDCHAR
STARTCHAR quotedbl
ENCODING 34
SWIDTH 409 0
DWIDTH 5 0
BBX 4 3 0 5
BITMAP
5B7A
5F7D
3A48
ENDCHAR
STARTCHAR numbersign
ENCODING 35
SWIDTH 561 0
DWIDTH 6 0
BBX 6 6 0 1
BITMAP
004252
04F8F6
0DFEE7
2BCBC1
6FCFC1
1C4B10
ENDCHAR
STARTCHAR dollar
ENCODING 36
SWIDTH 458 0
DWIDTH 5 0
BBX 5 8 0 0
BITMAP
00A100
02E410
4FEE50
7D7600
19AD80
6CCE70
35E500
00E100
ENDCHAR
STARTCHAR percent
ENCODING 37
SWIDTH 685 0
DWIDTH 8 0
BBX 8 9 0 -1
BITMAP
2BA10930
8AB65C00
88A7D400
3EE9B000
001E7B60
0089D7E1
02E2E3E1
0A808FB0
00000100
ENDCHAR
STARTCHAR ampersand
ENCODING 38
SWIDTH 485 0
DWIDTH 5 0
BBX 5 8 0 0
BITMAP
005500
06DD70
3E7740
4E6500
2FC900
4D1100
1CFFA0
008810
ENDCHAR
STARTCHAR quotesingle
ENCODING 39
SWIDTH 238 0
DWIDTH 3 0
BBX 3 3 0 5
BITMAP
5B10
5F00
3A00
ENDCHAR
STARTCHAR parenleft
ENCODING 40
SWIDTH 351 0
DWIDTH 4 0
BBX 4 11 0 -2
BITMAP
03C5
0CD0
3F60
7F20
9F00
9F00
7F20
3F60
0DC0
04F6
0011
ENDCHAR
STARTCHAR parenright
ENCODING 41
SWIDTH 351 0
DWIDTH 4 0
BBX 4 11 0 -2
BITMAP
7C10
1EA0
08F1
04F5
02F6
02F6
04F5
08F1
1EA0
8F30
1100
ENDCHAR
STARTCHAR asterisk
ENCODING 42
SWIDTH 589 0
DWIDTH 6 0
BBX 6 7 0 3
BITMAP
001200
008F00
3CBF9A
4DFFF9
04FFA0
0DD8F6
033050
ENDCHAR
STARTCHAR plus
ENCODING 43
SWIDTH 485 0
DWIDTH 5 0
BBX 5 6 0 1
BITMAP
003100
01F600
5AFC90
7DFEC0
01F600
005200
ENDCHAR
STARTCHAR comma
ENCODING 44
SWIDTH 264 0
DWIDTH 3 0
BBX 3 4 0 -2
BITMAP
1600
6F50
1D20
0300
ENDCHAR
STARTCHAR hyphen
ENCODING 45
SWIDTH 528 0
DWIDTH 6 0
BBX 6 2 0 3
BITMAP
399991
4DDDD2
ENDCHAR
STARTCHAR period
ENCODING 46
SWIDTH 263 0
DWIDTH 3 0
BBX 3 3 0 -1
BITMAP
1600
6F40
1500
ENDCHAR
STARTCHAR slash
ENCODING 47
SWIDTH 490 0
DWIDTH 5 0
BBX 5 8 0 0
BITMAP
0007A0
001E90
006F20
00CB00
04F500
0AE000
1F8000
7F2000
ENDCHAR
STARTCHAR zero
ENCODING 48
SWIDTH 642 0
DWIDTH 7 0
BBX 7 9 0 -1
BITMAP
029C9200
1DEAEE10
5F403F60
8F000E80
8F000D90
6F201F70
2FC6BF20
05EFE500
00010000
ENDCHAR
STARTCHAR one
ENCODING 49
SWIDTH 317 0
DWIDTH 4 0
BBX 3 8 0 0
BITMAP
6B80
7FB0
0CB0
0CB0
0CB0
0CB0
0CB0
0CB0
ENDCHAR
STARTCHAR two
ENCODING 50
SWIDTH 570 0
DWIDTH 6 0
BBX 6 8 0 0
BITMAP
2BBA70
2DDDF8
0000BC
038AF9
2FFEA1
7F2000
8F8885
8FFFFA
ENDCHAR
STARTCHAR three
ENCODING 51
SWIDTH 586 0
DWIDTH 6 0
BBX 6 8 0 0
BITMAP
5BBA70
6DDDF9
0000AD
059AEB
07EEF8
0000BD
4888EB
7FFFC2
ENDCHAR
STARTCHAR four
ENCODING 52
SWIDTH 630 0
DWIDTH 7 0
BBX 7 8 0 0
BITMAP
09700000
0F80BA00
2F60CB00
4F40CB00
6F31DB10
8FFFFF70
4777ED30
0000CB00
ENDCHAR
STARTCHAR five
ENCODING 53
SWIDTH 585 0
DWIDTH 6 0
BBX 6 8 0 0
BITMAP
1BBBB8
2FEDD9
4F5000
5FDCA2
5BBBEB
00008F
4888ED
7FFFC3
ENDCHAR
STARTCHAR six
ENCODING 54
SWIDTH 615 0
DWIDTH 7 0
BBX 7 9 0 -1
BITMAP
008A2000
07F50000
1FDB8100
6FEBFD00
8F405F40
8F203F50
4FB6CE10
07FFE500
00130000
ENDCHAR
STARTCHAR seven
ENCODING 55
SWIDTH 516 0
DWIDTH 6 0
BBX 6 8 0 0
BITMAP
8BBBB6
9DDEF4
000AD0
001F80
006F30
00BD00
02F800
07F300
ENDCHAR
STARTCHAR eight
ENCODING 56
SWIDTH 618 0
DWIDTH 7 0
BBX 7 9 0 -1
BITMAP
03BDA200
0ED8EB00
2F709E00
0BEBF800
3EC9DD10
8F103F50
6F628F30
09FFE700
00121000
ENDCHAR
STARTCHAR nine
ENCODING 57
SWIDTH 616 0
DWIDTH 7 0
BBX 7 8 0 0
BITMAP
03BD9100
2FDAFC00
8F107F30
8F006F50
5FA7DF30
07EFFE00
0005F600
004EA000
ENDCHAR
STARTCHAR colon
ENCODING 58
SWIDTH 276 0
DWIDTH 3 0
BBX 3 6 0 -1
BITMAP
1710
5F50
0300
1610
5F60
0500
ENDCHAR
STARTCHAR semicolon
ENCODING 59
SWIDTH 276 0
DWIDTH 3 0
BBX 3 7 0 -2
BITMAP
1710
5F50
0300
1610
5F60
0D30
0300
ENDCHAR
STARTCHAR less
ENCODING 60
SWIDTH 478 0
DWIDTH 5 0
BBX 5 7 0 1
BITMAP
000400
006F70
05FC10
5FC100
2DE500
02DF50
001B20
ENDCHAR
STARTCHAR equal
ENCODING 61
SWIDTH 539 0
DWIDTH 6 0
BBX 6 4 0 2
BITMAP
3BBBB2
3BBBB2
288882
4EEEE3
ENDCHAR
STARTCHAR greater
ENCODING 62
SWIDTH 478 0
DWIDTH 5 0
BBX 5 7 0 1
BITMAP
040000
3FA000
09F900
009F80
02DF40
2EE400
1B3000
ENDCHAR
STARTCHAR question
ENCODING 63
SWIDTH 603 0
DWIDTH 7 0
BBX 7 9 0 -1
BITMAP
6BBB9200
7DDDED00
00005F30
0028DE10
00DFC400
03F50000
01710000
05F60000
00500000
ENDCHAR
STARTCHAR at
ENCODING 64
SWIDTH 629 0
DWIDTH 7 0
BBX 7 7 0 -1
BITMAP
03BDB300
2E75BE20
79BDD970
88DAEA80
3E577720
06ED3000
00031000
ENDCHAR
STARTCHAR A
ENCODING 65
SWIDTH 673 0
DWIDTH 7 0
BBX 7 8 0 0
BITMAP
006A8200
0AFEFE20
3F802E90
5F300BC0
6F411CC0
6FFFFFC0
6F877DC0
6F300BC0
ENDCHAR
STARTCHAR B
ENCODING 66
SWIDTH 666 0
DWIDTH 7 0
BBX 7 8 0 0
BITMAP
3BBBA700
4FDDDF80
4F400BC0
4FB9AF90
4FEEEF60
4F400CC0
4FA89EA0
4FFFFB20
ENDCHAR
STARTCHAR C
ENCODING 67
SWIDTH 640 0
DWIDTH 7 0
BBX 7 9 0 -1
BITMAP
005BB820
09FECF90
5F900210
9E000000
AD000000
7F400000
1DE86B60
02BFFE60
00012000
ENDCHAR
STARTCHAR D
ENCODING 68
SWIDTH 653 0
DWIDTH 7 0
BBX 7 8 0 0
BITMAP
3BBA6000
4FDEFB00
4F407F70
4F400CC0
4F400BD0
4F403F90
4FAAEE20
4FFEA200
ENDCHAR
STARTCHAR E
ENCODING 69
SWIDTH 578 0
DWIDTH 6 0
BBX 6 8 0 0
BITMAP
3BBBBB
4FDDDD
4F4000
4FB970
4FEEB0
4F4000
4FA888
4FFFFF
ENDCHAR
STARTCHAR F
ENCODING 70
SWIDTH 562 0
DWIDTH 6 0
BBX 7 8 0 0
BITMAP
3BBBBB10
4FDDDD10
4F400000
4FB95000
4FEE8000
4F400000
4F400000
4F400000
ENDCHAR
STARTCHAR G
ENCODING 71
SWIDTH 665 0
DWIDTH 7 0
BBX 7 9 0 -1
BITMAP
005AB810
09FECF90
4F900310
9E000000
AD0008A0
7F400AD0
1DE86DD0
02BFFE60
00012000
ENDCHAR
STARTCHAR H
ENCODING 72
SWIDTH 689 0
DWIDTH 8 0
BBX 7 8 0 0
BITMAP
3B300790
4F400AD0
4F400AD0
4FB99DD0
4FEEEFD0
4F400AD0
4F400AD0
4F400AD0
ENDCHAR
STARTCHAR I
ENCODING 73
SWIDTH 270 0
DWIDTH 3 0
BBX 3 8 0 0
BITMAP
3B30
4F40
4F40
4F40
4F40
4F40
4F40
4F40
ENDCHAR
STARTCHAR J
ENCODING 74
SWIDTH 416 0
DWIDTH 5 0
BBX 4 8 0 0
BITMAP
006A
009E
009E
009E
009E
00BC
8BF7
DD70
ENDCHAR
STARTCHAR K
ENCODING 75
SWIDTH 625 0
DWIDTH 7 0
BBX 7 8 0 0
BITMAP
3B302A60
4F40BD10
4F48F400
4F8F9000
4FFFE100
4FD5F800
4F50AE10
4F402F90
ENDCHAR
STARTCHAR L
ENCODING 76
SWIDTH 562 0
DWIDTH 6 0
BBX 7 8 0 0
BITMAP
3B300000
4F400000
4F400000
4F400000
4F400000
4F400000
4FA88810
4FFFFF20
ENDCHAR
STARTCHAR M
ENCODING 77
SWIDTH 819 0
DWIDTH 9 0
BBX 9 8 0 0
BITMAP
04BB6AB400
2EDEFEDE20
5F44F53F50
5F34F43F50
5F34F43F50
5F34F43F50
5F34F43F50
5F34F43F50
ENDCHAR
STARTCHAR N
ENCODING 78
SWIDTH 689 0
DWIDTH 8 0
BBX 7 8 0 0
BITMAP
3B600790
4FE20AD0
4FFA0AD0
4FAF3AD0
4F4CCAD0
4F44FED0
4F40AFD0
4F402ED0
ENDCHAR
STARTCHAR O
ENCODING 79
SWIDTH 777 0
DWIDTH 9 0
BBX 9 9 0 -1
BITMAP
005AB82000
09FECFE300
5F9002DD00
9E00006F20
AD00005F30
7F4000BE10
1DE86BF700
02BFFE7000
0001200000
ENDCHAR
STARTCHAR P
ENCODING 80
SWIDTH 642 0
DWIDTH 7 0
BBX 7 8 0 0
BITMAP
3BBB9300
4FDDFF30
4F402EB0
4F400BC0
4F515F90
4FFFFD10
4F975000
4F400000
ENDCHAR
STARTCHAR Q
ENCODING 81
SWIDTH 777 0
DWIDTH 9 0
BBX 9 10 0 -2
BITMAP
005AB82000
09FECFE300
5F9002DD00
9E00006F20
AD00005F30
7F4000BE10
1DE86BF700
02BFFF7000
00015F8000
0000068100
ENDCHAR
STARTCHAR R
ENCODING 82
SWIDTH 651 0
DWIDTH 7 0
BBX 7 8 0 0
BITMAP
3BBB9300
4FDDFF30
4F402EB0
4F400BD0
4F515F90
4FFFFD20
4F97EA00
4F408F20
ENDCHAR
STARTCHAR S
ENCODING 83
SWIDTH 610 0
DWIDTH 7 0
BBX 7 8 0 0
BITMAP
06ABBB10
6FDDDD10
AD000000
8FA98200
19DEFE10
00003F50
3888BF30
5FFFE700
ENDCHAR
STARTCHAR T
ENCODING 84
SWIDTH 578 0
DWIDTH 6 0
BBX 7 8 0 0
BITMAP
ABBBBB30
BDEFDD30
009E0000
009E0000
009E0000
009E0000
009E0000
009E0000
ENDCHAR
STARTCHAR U
ENCODING 85
SWIDTH 673 0
DWIDTH 7 0
BBX 7 8 0 0
BITMAP
4B200880
6F300BC0
6F300BC0
6F300BC0
6F300BC0
4F500DA0
0DE9CF40
02BED500
ENDCHAR
STARTCHAR V
ENCODING 86
SWIDTH 602 0
DWIDTH 7 0
BBX 7 8 0 0
BITMAP
99003B50
9F208F30
4F60CD00
0EB2F800
09F7F300
04FED000
00EF9000
00AF4000
ENDCHAR
STARTCHAR W
ENCODING 87
SWIDTH 819 0
DWIDTH 9 0
BBX 9 9 0 -1
BITMAP
4B23B32B40
5F34F43F50
5F34F43F50
5F34F43F50
5F34F43F50
5F34F43F50
3FABFBAF30
08FFAFF800
0000001000
ENDCHAR
STARTCHAR X
ENCODING 88
SWIDTH 608 0
DWIDTH 7 0
BBX 7 8 0 0
BITMAP
8A104B50
4F90DE10
0AFAF500
01EFB000
00DF8000
07FDF300
2EB2EC00
AF307F60
ENDCHAR
STARTCHAR Y
ENCODING 89
SWIDTH 620 0
DWIDTH 7 0
BBX 7 8 0 0
BITMAP
79000B50
AD001F70
AD001F70
7F306F50
1DFDFB00
01AF8100
005F3000
005F3000
ENDCHAR
STARTCHAR Z
ENCODING 90
SWIDTH 586 0
DWIDTH 6 0
BBX 7 8 0 0
BITMAP
8BBBBA10
ADDEF900
000CE100
005F8000
00DE1000
06F70000
1EF98820
7FFFFF30
ENDCHAR
STARTCHAR bracketleft
ENCODING 91
SWIDTH 380 0
DWIDTH 4 0
BBX 4 11 0 -2
BITMAP
4CC9
5FC9
5F40
5F40
5F40
5F40
5F40
5F40
5F95
5FFC
0111
ENDCHAR
STARTCHAR backslash
ENCODING 92
SWIDTH 490 0
DWIDTH 5 0
BBX 5 8 0 0
BITMAP
6A1000
3F6000
0CC000
05F300
00E900
008F10
002F70
000BD0
ENDCHAR
STARTCHAR bracketright
ENCODING 93
SWIDTH 380 0
DWIDTH 4 0
BBX 4 11 0 -2
BITMAP
7CC6
7BF8
01F8
01F8
01F8
01F8
01F8
01F8
47F8
9FF8
1111
ENDCHAR
STARTCHAR asciicircum
ENCODING 94
SWIDTH 293 0
DWIDTH 3 0
BBX 4 3 0 5
BITMAP
0710
AEC1
5160
ENDCHAR
STARTCHAR underscore
ENCODING 95
SWIDTH 598 0
DWIDTH 7 0
BBX 5 2 1 -3
BITMAP
DEEE70
888850
ENDCHAR
STARTCHAR grave
ENCODING 96
SWIDTH 225 0
DWIDTH 2 0
BBX 3 3 0 5
BITMAP
4300
AE30
0510
ENDCHAR
STARTCHAR a
ENCODING 97
SWIDTH 607 0
DWIDTH 7 0
BBX 7 7 0 -1
BITMAP
06DE8610
4FB9FF20
AD008F20
AC007F20
6F97EF20
08FFA920
00010000
ENDCHAR
STARTCHAR b
ENCODING 98
SWIDTH 597 0
DWIDTH 7 0
BBX 7 10 0 -1
BITMAP
01000000
8E000000
8E000000
8EBEA200
8FD9EC00
8F105F30
7F104F30
3FB6DD10
05EFD300
00010000
ENDCHAR
STARTCHAR c
ENCODING 99
SWIDTH 521 0
DWIDTH 6 0
BBX 6 7 0 -1
BITMAP
05CE91
4FB9F5
AD0030
AC0010
6F97D4
08EFB2
000100
ENDCHAR
STARTCHAR d
ENCODING 100
SWIDTH 606 0
DWIDTH 7 0
BBX 7 10 0 -1
BITMAP
00000100
00005F20
00005F20
06CEBF20
4FB9FF20
AD008F20
AD007F20
6F97EF20
08EFAA20
00010000
ENDCHAR
STARTCHAR e
ENCODING 101
SWIDTH 524 0
DWIDTH 6 0
BBX 6 7 0 -1
BITMAP
06DE91
4FBCF5
AD3E90
ACCB10
5FF8D4
08EFB2
000100
ENDCHAR
STARTCHAR f
ENCODING 102
SWIDTH 395 0
DWIDTH 4 0
BBX 5 9 0 0
BITMAP
005860
08FE80
0E9000
9FDB20
8FCB20
1F6000
1F6000
1F6000
1F6000
ENDCHAR
STARTCHAR g
ENCODING 103
SWIDTH 607 0
DWIDTH 7 0
BBX 7 9 0 -3
BITMAP
05CE8610
4FB9FF20
AD008F20
AC007F20
6F97EF20
08FFEF10
0026DC00
008FC200
00220000
ENDCHAR
STARTCHAR h
ENCODING 104
SWIDTH 562 0
DWIDTH 6 0
BBX 6 9 0 0
BITMAP
010000
7F0000
7F0000
7FBC60
7FDBF5
7F10DA
7F00CB
7F00CB
7F00CB
ENDCHAR
STARTCHAR i
ENCODING 105
SWIDTH 235 0
DWIDTH 3 0
BBX 3 9 0 0
BITMAP
1300
9F30
4910
5B00
7F00
7F00
7F00
7F00
7F00
ENDCHAR
STARTCHAR j
ENCODING 106
SWIDTH 237 0
DWIDTH 3 0
BBX 5 12 -2 -3
BITMAP
001300
009F30
003910
005B10
007F10
007F10
007F10
007F10
007F00
35EB00
9FC200
220000
ENDCHAR
STARTCHAR k
ENCODING 107
SWIDTH 539 0
DWIDTH 6 0
BBX 6 9 0 0
BITMAP
010000
7F0000
7F0000
7F01B7
7F1BD1
7F9F30
7FFF70
7F99E1
7F12E9
ENDCHAR
STARTCHAR l
ENCODING 108
SWIDTH 235 0
DWIDTH 3 0
BBX 2 9 0 0
BITMAP
01
7F
7F
7F
7F
7F
7F
7F
7F
ENDCHAR
STARTCHAR m
ENCODING 109
SWIDTH 762 0
DWIDTH 8 0
BBX 8 6 0 0
BITMAP
58CA7CA1
7FBEFBEA
7F18E09D
7F08E09D
7F08E09D
7F08E09D
ENDCHAR
STARTCHAR n
ENCODING 110
SWIDTH 562 0
DWIDTH 6 0
BBX 6 6 0 0
BITMAP
56BC60
7FDBF5
7F10DA
7F00CB
7F00CB
7F00CB
ENDCHAR
STARTCHAR o
ENCODING 111
SWIDTH 579 0
DWIDTH 6 0
BBX 7 7 0 -1
BITMAP
06CE9100
4FB9FA00
AD008F00
AC007F10
6F97EB00
08EFB100
00010000
ENDCHAR
STARTCHAR p
ENCODING 112
SWIDTH 608 0
DWIDTH 7 0
BBX 7 9 0 -3
BITMAP
55BEB300
7FD8DE10
7F303F50
7F202F60
7FC6CF20
7FDFE500
7F010000
7F000000
13000000
ENDCHAR
STARTCHAR q
ENCODING 113
SWIDTH 607 0
DWIDTH 7 0
BBX 7 9 0 -3
BITMAP
06DE8610
4FB9FF20
AD008F20
AC007F20
6F97EF20
08FFDF20
00015F20
00005F20
00001300
ENDCHAR
STARTCHAR r
ENCODING 114
SWIDTH 414 0
DWIDTH 5 0
BBX 5 6 0 0
BITMAP
549B50
7FEB50
7F2000
7F0000
7F0000
7F0000
ENDCHAR
STARTCHAR s
ENCODING 115
SWIDTH 523 0
DWIDTH 6 0
BBX 6 6 0 0
BITMAP
18BBB2
7FBBB2
8E8850
1BEEF5
4777F7
AFFFB1
ENDCHAR
STARTCHAR t
ENCODING 116
SWIDTH 437 0
DWIDTH 5 0
BBX 5 9 0 0
BITMAP
010000
2F5000
2F5000
AFCB60
AFCB60
2F5000
1F5000
0DD740
02CF80
ENDCHAR
STARTCHAR u
ENCODING 117
SWIDTH 562 0
DWIDTH 6 0
BBX 6 7 0 -1
BITMAP
6B00A7
8E00D9
8E00D9
7E00D9
4F98F9
08FF99
000100
ENDCHAR
STARTCHAR v
ENCODING 118
SWIDTH 532 0
DWIDTH 6 0
BBX 6 6 0 0
BITMAP
A900B8
8F24F6
2F79E1
0CCE90
06FF30
01ED00
ENDCHAR
STARTCHAR w
ENCODING 119
SWIDTH 756 0
DWIDTH 8 0
BBX 8 7 0 -1
BITMAP
6B06A079
8F08D0AC
8F08D0AC
7F08D0AC
6F7DF7DB
0AFECFD2
00100100
ENDCHAR
STARTCHAR x
ENCODING 120
SWIDTH 528 0
DWIDTH 6 0
BBX 6 6 0 0
BITMAP
9B12C7
2EACD1
05FF30
04FE20
1DBDC0
AE24F8
ENDCHAR
STARTCHAR y
ENCODING 121
SWIDTH 562 0
DWIDTH 6 0
BBX 6 9 0 -3
BITMAP
6B00A7
8E00DA
8E00DA
7E00DA
4F98FA
08FFF9
0059F4
01FF70
003100
ENDCHAR
STARTCHAR z
ENCODING 122
SWIDTH 481 0
DWIDTH 5 0
BBX 6 6 0 0
BITMAP
8BBB90
8BDF50
00CC00
05F300
0DD770
7FFFF1
ENDCHAR
STARTCHAR braceleft
ENCODING 123
SWIDTH 466 0
DWIDTH 5 0
BBX 5 11 0 -2
BITMAP
009C90
04FC80
05F300
06F300
8DD100
AFB000
06F200
05F300
05F850
01DFB0
000110
ENDCHAR
STARTCHAR bar
ENCODING 124
SWIDTH 267 0
DWIDTH 3 0
BBX 3 11 0 -2
BITMAP
4C30
5F40
5F40
5F40
5F40
5F40
5F40
5F40
5F40
5F40
0100
ENDCHAR
STARTCHAR braceright
ENCODING 125
SWIDTH 466 0
DWIDTH 5 0
BBX 5 11 0 -2
BITMAP
7CA100
7BF700
01F800
01F800
00BEA0
009FC0
01F800
01F800
47F700
9FE200
110000
ENDCHAR
STARTCHAR asciitilde
ENCODING 126
SWIDTH 451 0
DWIDTH 5 0
BBX 5 2 0 3
BITMAP
4FBC60
6C8D30
ENDCHAR
STARTCHAR nonbreakingspace
ENCODING 160
SWIDTH 279 0
DWIDTH 3 0
BBX 1 1 0 0
BITMAP
00
ENDCHAR
STARTCHAR exclamdown
ENCODING 161
SWIDTH 274 0
DWIDTH 3 0
BBX 3 9 0 -2
BITMAP
1710
5F50
1810
2F20
3F30
4F40
5F50
5F60
3830
ENDCHAR
STARTCHAR cent
ENCODING 162
SWIDTH 462 0
DWIDTH 5 0
BBX 5 8 0 0
BITMAP
008300
01C600
1DDE70
7C0210
7B0200
2ECE70
01C700
00B400
ENDCHAR
STARTCHAR sterling
ENCODING 163
SWIDTH 681 0
DWIDTH 8 0
BBX 7 8 0 0
BITMAP
004A4000
04FE5000
09F00000
3CE60000
8FFF0000
0AE10250
09F88DE0
09FFFD40
ENDCHAR
STARTCHAR currency
ENCODING 164
SWIDTH 454 0
DWIDTH 5 0
BBX 5 5 0 1
BITMAP
687860
3D6E30
3A0B30
6FCF50
121220
ENDCHAR
STARTCHAR yen
ENCODING 165
SWIDTH 653 0
DWIDTH 7 0
BBX 7 8 0 0
BITMAP
5B100970
7F100DA0
7F100DA0
5F604F70
0BFDFD10
3DFFFD50
29AFB940
003F5000
ENDCHAR
STARTCHAR brokenbar
ENCODING 166
SWIDTH 269 0
DWIDTH 3 0
BBX 3 11 0 -2
BITMAP
4C30
4F40
4F40
4F40
3920
1410
4F40
4F40
4F40
4F40
0100
ENDCHAR
STARTCHAR section
ENCODING 167
SWIDTH 569 0
DWIDTH 6 0
BBX 6 8 0 0
BITMAP
06ABB3
4FCCC4
5FBA81
4FCCE9
5F87DB
0AFFF9
3777DB
6FFFD3
ENDCHAR
STARTCHAR dieresis
ENCODING 168
SWIDTH 300 0
DWIDTH 3 0
BBX 4 3 0 5
BITMAP
1010
E4E3
2020
ENDCHAR
STARTCHAR copyright
ENCODING 169
SWIDTH 655 0
DWIDTH 7 0
BBX 7 7 0 0
BITMAP
02ACB400
1C7A7B30
68B12390
788002A0
2BAB8850
06C9B800
00131000
ENDCHAR
STARTCHAR ordfeminine
ENCODING 170
SWIDTH 451 0
DWIDTH 5 0
BBX 5 6 0 2
BITMAP
08C810
4B2D20
4B2D20
08B720
377710
266610
ENDCHAR
STARTCHAR guillemotleft
ENCODING 171
SWIDTH 704 0
DWIDTH 8 0
BBX 8 6 0 0
BITMAP
00230150
02DB0BE1
2DC1AE30
6F73EB10
06F83EC1
00670290
ENDCHAR
STARTCHAR logicalnot
ENCODING 172
SWIDTH 529 0
DWIDTH 6 0
BBX 6 3 0 2
BITMAP
399991
4DDDF2
0004E2
ENDCHAR
STARTCHAR uni00AD
ENCODING 173
SWIDTH 418 0
DWIDTH 5 0
BBX 4 2 0 3
BITMAP
3999
4DDC
ENDCHAR
STARTCHAR registered
ENCODING 174
SWIDTH 439 0
DWIDTH 5 0
BBX 5 5 0 3
BITMAP
078500
698930
779650
2B7A10
013000
ENDCHAR
STARTCHAR macron
ENCODING 175
SWIDTH 247 0
DWIDTH 3 0
BBX 3 2 0 5
BITMAP
FFB0
2210
ENDCHAR
STARTCHAR degree
ENCODING 176
SWIDTH 381 0
DWIDTH 4 0
BBX 4 4 0 4
BITMAP
0561
6DC9
8B9B
1BC3
ENDCHAR
STARTCHAR plusminus
ENCODING 177
SWIDTH 516 0
DWIDTH 6 0
BBX 6 6 0 0
BITMAP
00C800
49ED91
5DFED1
00D800
377771
6FFFF1
ENDCHAR
STARTCHAR twosuperior
ENCODING 178
SWIDTH 355 0
DWIDTH 4 0
BBX 4 5 0 3
BITMAP
3B91
19E5
5E91
6FF4
0110
ENDCHAR
STARTCHAR threesuperior
ENCODING 179
SWIDTH 354 0
DWIDTH 4 0
BBX 4 5 0 3
BITMAP
4B91
2AE5
0AE5
5FE3
0100
ENDCHAR
STARTCHAR acute
ENCODING 180
SWIDTH 225 0
DWIDTH 2 0
BBX 3 3 0 5
BITMAP
0600
AE30
5100
ENDCHAR
STARTCHAR mu
ENCODING 181
SWIDTH 571 0
DWIDTH 6 0
BBX 6 9 0 -3
BITMAP
4B1079
5F20AC
5F20AC
5F20AC
5FA7FC
5FEFAA
5E0100
5D0000
250000
ENDCHAR
STARTCHAR paragraph
ENCODING 182
SWIDTH 808 0
DWIDTH 9 0
BBX 9 8 0 0
BITMAP
017ABBBB10
1DFEFDEF20
6F54F47F20
8F04F47F20
5F85F47F20
0AFFF47F20
0049F47F20
0004F47F20
ENDCHAR
STARTCHAR periodcentered
ENCODING 183
SWIDTH 261 0
DWIDTH 3 0
BBX 3 2 0 3
BITMAP
3A20
5F30
ENDCHAR
STARTCHAR cedilla
ENCODING 184
SWIDTH 208 0
DWIDTH 2 0
BBX 3 4 0 -3
BITMAP
0300
3B10
8E30
5600
ENDCHAR
STARTCHAR onesuperior
ENCODING 185
SWIDTH 231 0
DWIDTH 3 0
BBX 2 5 0 3
BITMAP
59
4D
3D
3D
01
ENDCHAR
STARTCHAR ordmasculine
ENCODING 186
SWIDTH 432 0
DWIDTH 5 0
BBX 5 6 0 2
BITMAP
08C600
4B2D10
4B2D10
08B500
377710
266610
ENDCHAR
STARTCHAR guillemotright
ENCODING 187
SWIDTH 703 0
DWIDTH 8 0
BBX 8 6 0 0
BITMAP
05005100
4F71EB00
06F73EB0
02EC1BE3
3EC2BE30
2A109300
ENDCHAR
STARTCHAR onequarter
ENCODING 188
SWIDTH 648 0
DWIDTH 7 0
BBX 7 8 0 0
BITMAP
2B206600
1E31E200
0D399000
0D5E1000
01B8C530
04D3EA60
0C64EEA0
5C025C70
ENDCHAR
STARTCHAR onehalf
ENCODING 189
SWIDTH 637 0
DWIDTH 7 0
BBX 7 8 0 0
BITMAP
2B206600
1E31E200
0D399000
0D5E1000
01B7CB30
04D18D80
0C61EA20
5C03FF80
ENDCHAR
STARTCHAR threequarters
ENCODING 190
SWIDTH 708 0
DWIDTH 8 0
BBX 8 8 0 0
BITMAP
5B800930
3BE35C00
1BE3D400
7FE8B000
111E7870
008979F1
02E19DF5
0A8035F3
ENDCHAR
STARTCHAR questiondown
ENCODING 191
SWIDTH 602 0
DWIDTH 7 0
BBX 7 9 0 -2
BITMAP
00045000
000BE000
00046000
001CC000
1AFF6000
7F840000
9E100000
3FFFFF30
03888820
ENDCHAR
STARTCHAR Agrave
ENCODING 192
SWIDTH 673 0
DWIDTH 7 0
BBX 7 11 0 0
BITMAP
00610000
01DC1000
00060000
006A8200
0AFEFE20
3F802E90
5F300BC0
6F411CC0
6FFFFFC0
6F877DC0
6F300BC0
ENDCHAR
STARTCHAR Aacute
ENCODING 193
SWIDTH 673 0
DWIDTH 7 0
BBX 7 11 0 0
BITMAP
00006100
0008F400
00042000
006A8200
0AFEFE20
3F802E90
5F300BC0
6F411CC0
6FFFFFC0
6F877DC0
6F300BC0
ENDCHAR
STARTCHAR Acircumflex
ENCODING 194
SWIDTH 673 0
DWIDTH 7 0
BBX 7 11 0 0
BITMAP
00061000
007DD000
00213000
006A8200
0AFEFE20
3F802E90
5F300BC0
6F411CC0
6FFFFFC0
6F877DC0
6F300BC0
ENDCHAR
STARTCHAR Atilde
ENCODING 195
SWIDTH 673 0
DWIDTH 7 0
BBX 7 10 0 0
BITMAP
00665400
00FBF500
009AA200
0AFEFE20
3F802E90
5F300BC0
6F411CC0
6FFFFFC0
6F877DC0
6F300BC0
ENDCHAR
STARTCHAR Adieresis
ENCODING 196
SWIDTH 673 0
DWIDTH 7 0
BBX 7 10 0 0
BITMAP
00101000
00D5E400
007AA200
0AFEFE20
3F802E90
5F300BC0
6F411CC0
6FFFFFC0
6F877DC0
6F300BC0
ENDCHAR
STARTCHAR Aring
ENCODING 197
SWIDTH 673 0
DWIDTH 7 0
BBX 7 10 0 0
BITMAP
00062000
004AA000
007FB200
0AFEFE20
3F802E90
5F300BC0
6F411CC0
6FFFFFC0
6F877DC0
6F300BC0
ENDCHAR
STARTCHAR AE
ENCODING 198
SWIDTH 988 0
DWIDTH 11 0
BBX 11 8 0 0
BITMAP
006ABBBBBB50
0AFDDEFDDD70
3F800CC00000
5F300CE99300
6F411CFEE400
6FFFFFC00000
6F877DE88840
6F300CFFFF80
ENDCHAR
STARTCHAR Ccedilla
ENCODING 199
SWIDTH 640 0
DWIDTH 7 0
BBX 7 11 0 -3
BITMAP
005BB820
09FECF90
5F900210
9E000000
AD000000
7F400000
1DE86B60
01AFFE60
000C5000
004BA000
00272000
ENDCHAR
STARTCHAR Egrave
ENCODING 200
SWIDTH 578 0
DWIDTH 6 0
BBX 6 11 0 0
BITMAP
006000
02EA00
001500
3BBBBB
4FDDDD
4F4000
4FB970
4FEEB0
4F4000
4FA888
4FFFFF
ENDCHAR
STARTCHAR Eacute
ENCODING 201
SWIDTH 578 0
DWIDTH 6 0
BBX 6 11 0 0
BITMAP
000160
001CD1
000610
3BBBBB
4FDDDD
4F4000
4FB970
4FEEB0
4F4000
4FA888
4FFFFF
ENDCHAR
STARTCHAR Ecircumflex
ENCODING 202
SWIDTH 578 0
DWIDTH 6 0
BBX 6 11 0 0
BITMAP
001600
00CD80
003130
3BBBBB
4FDDDD
4F4000
4FB970
4FEEB0
4F4000
4FA888
4FFFFF
ENDCHAR
STARTCHAR Edieresis
ENCODING 203
SWIDTH 578 0
DWIDTH 6 0
BBX 6 10 0 0
BITMAP
002010
04E4E0
3BCBCB
4FDDDD
4F4000
4FB970
4FEEB0
4F4000
4FA888
4FFFFF
ENDCHAR
STARTCHAR Igrave
ENCODING 204
SWIDTH 270 0
DWIDTH 3 0
BBX 4 11 -1 0
BITMAP
0600
2EB0
0150
03B3
04F4
04F4
04F4
04F4
04F4
04F4
04F4
ENDCHAR
STARTCHAR Iacute
ENCODING 205
SWIDTH 270 0
DWIDTH 3 0
BBX 4 11 0 0
BITMAP
0060
0BE2
0510
3B30
4F40
4F40
4F40
4F40
4F40
4F40
4F40
ENDCHAR
STARTCHAR Icircumflex
ENCODING 206
SWIDTH 270 0
DWIDTH 3 0
BBX 3 11 0 0
BITMAP
0600
ADA0
3030
3B30
4F40
4F40
4F40
4F40
4F40
4F40
4F40
ENDCHAR
STARTCHAR Idieresis
ENCODING 207
SWIDTH 270 0
DWIDTH 3 0
BBX 5 10 -1 0
BITMAP
020100
1F4F10
05B400
04F400
04F400
04F400
04F400
04F400
04F400
04F400
ENDCHAR
STARTCHAR Eth
ENCODING 208
SWIDTH 672 0
DWIDTH 7 0
BBX 8 8 0 0
BITMAP
1BBA7100
1FEEFD10
1F704FA0
9FC409F0
CFE508F1
1F701DC0
1FB9EF40
1FFEB400
ENDCHAR
STARTCHAR Ntilde
ENCODING 209
SWIDTH 689 0
DWIDTH 8 0
BBX 7 10 0 0
BITMAP
00574500
00EBF700
3B912790
4FE20AD0
4FFA0AD0
4FAF3AD0
4F4CCAD0
4F44FED0
4F40AFD0
4F402ED0
ENDCHAR
STARTCHAR Ograve
ENCODING 210
SWIDTH 777 0
DWIDTH 9 0
BBX 9 12 0 -1
BITMAP
0016000000
005F700000
0002400000
005AB82000
09FECFE300
5F9002DD00
9E00006F20
AD00005F30
7F4000BE10
1DE86BF700
02BFFE7000
0001200000
ENDCHAR
STARTCHAR Oacute
ENCODING 211
SWIDTH 777 0
DWIDTH 9 0
BBX 9 12 0 -1
BITMAP
0000150000
0001DD1000
0000600000
005AB82000
09FECFE300
5F9002DD00
9E00006F20
AD00005F30
7F4000BE10
1DE86BF700
02BFFE7000
0001200000
ENDCHAR
STARTCHAR Ocircumflex
ENCODING 212
SWIDTH 777 0
DWIDTH 9 0
BBX 9 12 0 -1
BITMAP
0001600000
001DD60000
0003120000
005AB82000
09FECFE300
5F9002DD00
9E00006F20
AD00005F30
7F4000BE10
1DE86BF700
02BFFE7000
0001200000
ENDCHAR
STARTCHAR Otilde
ENCODING 213
SWIDTH 777 0
DWIDTH 9 0
BBX 9 11 0 -1
BITMAP
0028380000
007DDE0000
006DDA2000
09FECFE300
5F9002DD00
9E00006F20
AD00005F30
7F4000BE10
1DE86BF700
02BFFE7000
0001200000
ENDCHAR
STARTCHAR Odieresis
ENCODING 214
SWIDTH 777 0
DWIDTH 9 0
BBX 9 11 0 -1
BITMAP
0001010000
005E5D0000
005CCA2000
09FECFE300
5F9002DD00
9E00006F20
AD00005F30
7F4000BE10
1DE86BF700
02BFFE7000
0001200000
ENDCHAR
STARTCHAR multiply
ENCODING 215
SWIDTH 479 0
DWIDTH 5 0
BBX 5 5 0 1
BITMAP
2B3B50
2DFF40
1CFE20
2D6D60
000100
ENDCHAR
STARTCHAR Oslash
ENCODING 216
SWIDTH 777 0
DWIDTH 9 0
BBX 9 9 0 -1
BITMAP
005AB89600
09FECFF400
5F904FED00
9E01D76F30
AD0BB05F30
7FAE20BE10
0DFB6BF700
1DDFFE7000
0001200000
ENDCHAR
STARTCHAR Ugrave
ENCODING 217
SWIDTH 673 0
DWIDTH 7 0
BBX 7 11 0 0
BITMAP
00520000
00CD2000
00060000
4B200880
6F300BC0
6F300BC0
6F300BC0
6F300BC0
4F500DA0
0DE9CF40
02BED500
ENDCHAR
STARTCHAR Uacute
ENCODING 218
SWIDTH 673 0
DWIDTH 7 0
BBX 7 11 0 0
BITMAP
00006100
0007F500
00043000
4B200880
6F300BC0
6F300BC0
6F300BC0
6F300BC0
4F500DA0
0DE9CF40
02BED500
ENDCHAR
STARTCHAR Ucircumflex
ENCODING 219
SWIDTH 673 0
DWIDTH 7 0
BBX 7 11 0 0
BITMAP
00061000
007DD000
00213000
4B200880
6F300BC0
6F300BC0
6F300BC0
6F300BC0
4F500DA0
0DE9CF40
02BED500
ENDCHAR
STARTCHAR Udieresis
ENCODING 220
SWIDTH 673 0
DWIDTH 7 0
BBX 7 10 0 0
BITMAP
00101000
00D5E400
4B302880
6F300BC0
6F300BC0
6F300BC0
6F300BC0
4F500DA0
0DE9CF40
02BED500
ENDCHAR
STARTCHAR Yacute
ENCODING 221
SWIDTH 620 0
DWIDTH 7 0
BBX 7 11 0 0
BITMAP
00016000
000CD100
00061000
79000B50
AD001F70
AD001F70
7F306F50
1DFDFB00
01AF8100
005F3000
005F3000
ENDCHAR
STARTCHAR Thorn
ENCODING 222
SWIDTH 637 0
DWIDTH 7 0
BBX 7 9 0 -1
BITMAP
4F400000
4FEEC500
4FB9CF50
4F400DB0
4F400BC0
4F758F70
4FFFFA00
4F631000
15100000
ENDCHAR
STARTCHAR germandbls
ENCODING 223
SWIDTH 813 0
DWIDTH 9 0
BBX 9 9 0 0
BITMAP
0058971000
08FEDFC000
0E9006F100
9F629ED000
8F6BE92000
1F6CD88710
1F63CEEFA0
1F63777CC0
1F66FFFD40
ENDCHAR
STARTCHAR agrave
ENCODING 224
SWIDTH 607 0
DWIDTH 7 0
BBX 7 10 0 -1
BITMAP
01500000
06F60000
00330000
06DE8610
4FB9FF20
AD008F20
AC007F20
6F97EF20
08FFA920
00010000
ENDCHAR
STARTCHAR aacute
ENCODING 225
SWIDTH 607 0
DWIDTH 7 0
BBX 7 10 0 -1
BITMAP
00024000
002EB000
00150000
06DE8610
4FB9FF20
AD008F20
AC007F20
6F97EF20
08FFA920
00010000
ENDCHAR
STARTCHAR acircumflex
ENCODING 226
SWIDTH 607 0
DWIDTH 7 0
BBX 7 10 0 -1
BITMAP
00250000
01DE5000
00322000
06DE8610
4FB9FF20
AD008F20
AC007F20
6F97EF20
08FFA920
00010000
ENDCHAR
STARTCHAR atilde
ENCODING 227
SWIDTH 607 0
DWIDTH 7 0
BBX 7 10 0 -1
BITMAP
02838000
08CED000
02211000
06DE8610
4FB9FF20
AD008F20
AC007F20
6F97EF20
08FFA920
00010000
ENDCHAR
STARTCHAR adieresis
ENCODING 228
SWIDTH 607 0
DWIDTH 7 0
BBX 7 9 0 -1
BITMAP
00101000
06C6B000
06EEA610
4FB9FF20
AD008F20
AC007F20
6F97EF20
08FFA920
00010000
ENDCHAR
STARTCHAR aring
ENCODING 229
SWIDTH 607 0
DWIDTH 7 0
BBX 7 10 0 -1
BITMAP
006A1000
00BB2000
00240000
06DE8610
4FB9FF20
AD008F20
AC007F20
6F97EF20
08FFA920
00010000
ENDCHAR
STARTCHAR ae
ENCODING 230
SWIDTH 976 0
DWIDTH 11 0
BBX 11 7 0 -1
BITMAP
06DE867DE910
4FB9FFFBCF50
AD008FD3E800
AC007FCDB100
6F97EFFF8D30
08FFA9AFFB10
000100001000
ENDCHAR
STARTCHAR ccedilla
ENCODING 231
SWIDTH 521 0
DWIDTH 6 0
BBX 6 9 0 -3
BITMAP
05CE91
4FB9F5
AD0030
BC0010
6F97D4
08EFB2
007900
019F00
006400
ENDCHAR
STARTCHAR egrave
ENCODING 232
SWIDTH 524 0
DWIDTH 6 0
BBX 6 10 0 -1
BITMAP
025000
07F500
004200
06DE91
4FBCF5
AD3E90
ACCB10
5FF8D4
08EFB2
000100
ENDCHAR
STARTCHAR eacute
ENCODING 233
SWIDTH 524 0
DWIDTH 6 0
BBX 6 10 0 -1
BITMAP
000240
003EA0
001500
06DE91
4FBCF5
AD3E90
ACCB10
5FF8D4
08EFB2
000100
ENDCHAR
STARTCHAR ecircumflex
ENCODING 234
SWIDTH 524 0
DWIDTH 6 0
BBX 6 10 0 -1
BITMAP
004300
04EE20
012300
06DE91
4FBCF5
AD3E90
ACCB10
5FF8D4
08EFB2
000100
ENDCHAR
STARTCHAR edieresis
ENCODING 235
SWIDTH 524 0
DWIDTH 6 0
BBX 6 10 0 -1
BITMAP
011100
0A8A70
011110
06DE91
4FBCF5
AD3E90
ACCB10
5FF8D4
08EFB2
000100
ENDCHAR
STARTCHAR igrave
ENCODING 236
SWIDTH 235 0
DWIDTH 3 0
BBX 3 9 -1 0
BITMAP
0600
4F80
0240
05B0
07F0
07F0
07F0
07F0
07F0
ENDCHAR
STARTCHAR iacute
ENCODING 237
SWIDTH 235 0
DWIDTH 3 0
BBX 3 9 0 0
BITMAP
0150
1DC0
0600
5B00
7F00
7F00
7F00
7F00
7F00
ENDCHAR
STARTCHAR icircumflex
ENCODING 238
SWIDTH 235 0
DWIDTH 3 0
BBX 3 9 0 0
BITMAP
1600
CD70
3120
5B00
7F00
7F00
7F00
7F00
7F00
ENDCHAR
STARTCHAR idieresis
ENCODING 239
SWIDTH 235 0
DWIDTH 3 0
BBX 4 8 -1 0
BITMAP
0201
4E5D
07B2
07F0
07F0
07F0
07F0
07F0
ENDCHAR
STARTCHAR eth
ENCODING 240
SWIDTH 581 0
DWIDTH 6 0
BBX 7 10 0 -1
BITMAP
00461000
06DFCA00
058BF900
05CEF700
4FB9FD00
AD008F10
AC007F10
6F97EB00
08EFB100
00010000
ENDCHAR
STARTCHAR ntilde
ENCODING 241
SWIDTH 562 0
DWIDTH 6 0
BBX 6 8 0 0
BITMAP
038370
09CEC0
58DD70
7FDBF5
7F10DA
7F00CB
7F00CB
7F00CB
ENDCHAR
STARTCHAR ograve
ENCODING 242
SWIDTH 579 0
DWIDTH 6 0
BBX 7 10 0 -1
BITMAP
01500000
06F60000
00330000
06CE9100
4FB9FA00
AD008F00
AC007F10
6F97EB00
08EFB100
00010000
ENDCHAR
STARTCHAR oacute
ENCODING 243
SWIDTH 579 0
DWIDTH 6 0
BBX 7 10 0 -1
BITMAP
00024000
003EA000
00150000
06CE9100
4FB9FA00
AD008F00
AC007F10
6F97EB00
08EFB100
00010000
ENDCHAR
STARTCHAR ocircumflex
ENCODING 244
SWIDTH 579 0
DWIDTH 6 0
BBX 7 10 0 -1
BITMAP
00250000
01DE5000
00322000
06CE9100
4FB9FA00
AD008F00
AC007F10
6F97EB00
08EFB100
00010000
ENDCHAR
STARTCHAR otilde
ENCODING 245
SWIDTH 579 0
DWIDTH 6 0
BBX 7 10 0 -1
BITMAP
02837000
08CEC000
02211000
06CE9100
4FB9FA00
AD008F00
AC007F10
6F97EB00
08EFB100
00010000
ENDCHAR
STARTCHAR odieresis
ENCODING 246
SWIDTH 579 0
DWIDTH 6 0
BBX 7 9 0 -1
BITMAP
00101000
06C7B000
06EEA100
4FB9FA00
AD008F00
AC007F10
6F97EB00
08EFB100
00010000
ENDCHAR
STARTCHAR divide
ENCODING 247
SWIDTH 494 0
DWIDTH 5 0
BBX 5 6 0 1
BITMAP
007200
00D500
599990
7DDDC0
00B400
009300
ENDCHAR
STARTCHAR oslash
ENCODING 248
SWIDTH 579 0
DWIDTH 6 0
BBX 7 7 0 -1
BITMAP
06CECA00
4FBCFA00
AD2ECF10
ACCA7F10
6FF7EB00
5FFFB100
00010000
ENDCHAR
STARTCHAR ugrave
ENCODING 249
SWIDTH 562 0
DWIDTH 6 0
BBX 6 10 0 -1
BITMAP
024000
08F400
004200
6B00A7
8E00D9
8E00D9
7E00D9
4F98F9
08FF99
000100
ENDCHAR
STARTCHAR uacute
ENCODING 250
SWIDTH 562 0
DWIDTH 6 0
BBX 6 10 0 -1
BITMAP
000330
003E90
001500
6B00A7
8E00D9
8E00D9
7E00D9
4F98F9
08FF99
000100
ENDCHAR
STARTCHAR ucircumflex
ENCODING 251
SWIDTH 562 0
DWIDTH 6 0
BBX 6 10 0 -1
BITMAP
003400
03EE40
003210
6B00A7
8E00D9
8E00D9
7E00D9
4F98F9
08FF99
000100
ENDCHAR
STARTCHAR udieresis
ENCODING 252
SWIDTH 562 0
DWIDTH 6 0
BBX 6 9 0 -1
BITMAP
011110
08A890
6B11A7
8E00D9
8E00D9
7E00D9
4F98F9
08FF99
000100
ENDCHAR
STARTCHAR yacute
ENCODING 253
SWIDTH 562 0
DWIDTH 6 0
BBX 6 12 0 -3
BITMAP
000330
004E90
002500
6B00A7
8E00DA
8E00DA
7E00DA
4F98FA
08FFF9
0059F4
01FF70
003100
ENDCHAR
STARTCHAR thorn
ENCODING 254
SWIDTH 608 0
DWIDTH 7 0
BBX 7 12 0 -3
BITMAP
12000000
7F200000
7F200000
7FBEB300
7FD9DE10
7F303F50
7F202F60
7FC6CF20
7FDFE500
7F010000
7F000000
13000000
ENDCHAR
STARTCHAR ydieresis
ENCODING 255
SWIDTH 562 0
DWIDTH 6 0
BBX 6 11 0 -3
BITMAP
011110
08A890
6B11A7
8E00DA
8E00DA
7E00DA
4F98FA
08FFF9
0059F4
01FF70
003100
ENDCHAR
STARTCHAR Amacron
ENCODING 256
SWIDTH 673 0
DWIDTH 7 0
BBX 7 9 0 0
BITMAP
00AFF100
007BA200
0AFEFE20
3F802E90
5F300BC0
6F411CC0
6FFFFFC0
6F877DC0
6F300BC0
ENDCHAR
STARTCHAR amacron
ENCODING 257
SWIDTH 607 0
DWIDTH 7 0
BBX 7 9 0 -1
BITMAP
04FF7000
00221000
06DE8610
4FB9FF20
AD008F20
AC007F20
6F97EF20
08FFA920
00010000
ENDCHAR
STARTCHAR Abreve
ENCODING 258
SWIDTH 673 0
DWIDTH 7 0
BBX 7 10 0 0
BITMAP
00445000
005EA000
006A8200
0AFEFE20
3F802E90
5F300BC0
6F411CC0
6FFFFFC0
6F877DC0
6F300BC0
ENDCHAR
STARTCHAR abreve
ENCODING 259
SWIDTH 607 0
DWIDTH 7 0
BBX 7 9 0 -1
BITMAP
01651000
01DE2000
06DE8610
4FB9FF20
AD008F20
AC007F20
6F97EF20
08FFA920
00010000
ENDCHAR
STARTCHAR Aogonek
ENCODING 260
SWIDTH 673 0
DWIDTH 7 0
BBX 8 10 0 -2
BITMAP
006A8200
0AFEFE20
3F802E90
5F300BC0
6F411CC0
6FFFFFC0
6F877DC0
6F300BC0
00000D30
00000CC1
ENDCHAR
STARTCHAR aogonek
ENCODING 261
SWIDTH 607 0
DWIDTH 7 0
BBX 7 8 0 -2
BITMAP
06DE8610
4FB9FF20
AD008F20
AC007F20
6F97EF20
08FFAB20
00012C20
00002DA0
ENDCHAR
STARTCHAR Cacute
ENCODING 262
SWIDTH 640 0
DWIDTH 7 0
BBX 7 12 0 -1
BITMAP
00003300
0003E900
00015000
005BB820
09FECF90
5F900210
9E000000
AD000000
7F400000
1DE86B60
02BFFE60
00012000
ENDCHAR
STARTCHAR cacute
ENCODING 263
SWIDTH 521 0
DWIDTH 6 0
BBX 6 10 0 -1
BITMAP
000330
004E90
002500
05CE91
4FB9F5
AD0030
AC0010
6F97D4
08EFB2
000100
ENDCHAR
STARTCHAR Ccircumflex
ENCODING 264
SWIDTH 640 0
DWIDTH 7 0
BBX 7 12 0 -1
BITMAP
00034000
003EE400
00032100
005BB820
09FECF90
5F900210
9E000000
AD000000
7F400000
1DE86B60
02BFFE60
00012000
ENDCHAR
STARTCHAR ccircumflex
ENCODING 265
SWIDTH 521 0
DWIDTH 6 0
BBX 6 10 0 -1
BITMAP
002500
02EE50
003210
05CE91
4FB9F5
AD0030
AC0010
6F97D4
08EFB2
000100
ENDCHAR
STARTCHAR Cdotaccent
ENCODING 266
SWIDTH 640 0
DWIDTH 7 0
BBX 7 11 0 -1
BITMAP
00012000
0006C000
005BC820
09FECF90
5F900210
9E000000
AD000000
7F400000
1DE86B60
02BFFE60
00012000
ENDCHAR
STARTCHAR cdotaccent
ENCODING 267
SWIDTH 521 0
DWIDTH 6 0
BBX 6 10 0 -1
BITMAP
001200
006C00
000100
05CE91
4FB9F5
AD0030
AC0010
6F97D4
08EFB2
000100
ENDCHAR
STARTCHAR Ccaron
ENCODING 268
SWIDTH 640 0
DWIDTH 7 0
BBX 7 12 0 -1
BITMAP
00174400
000AE300
00002000
005BB820
09FECF90
5F900210
9E000000
AD000000
7F400000
1DE86B60
02BFFE60
00012000
ENDCHAR
STARTCHAR ccaron
ENCODING 269
SWIDTH 521 0
DWIDTH 6 0
BBX 6 10 0 -1
BITMAP
017540
01AE30
000200
05CE91
4FB9F5
AD0030
AC0010
6F97D4
08EFB2
000100
ENDCHAR
STARTCHAR Dcaron
ENCODING 270
SWIDTH 653 0
DWIDTH 7 0
BBX 7 10 0 0
BITMAP
00637000
005F8000
3BBC6000
4FDEFB00
4F407F70
4F400CC0
4F400BD0
4F403F90
4FAAEE20
4FFEA200
ENDCHAR
STARTCHAR dcaron
ENCODING 271
SWIDTH 740 0
DWIDTH 8 0
BBX 9 10 0 -1
BITMAP
0000010000
00005F4900
00005F4E10
06CEBF2500
4FB9FF2000
AD008F2000
AD007F2000
6F97EF2000
08EFAA2000
0001000000
ENDCHAR
STARTCHAR Dcroat
ENCODING 272
SWIDTH 672 0
DWIDTH 7 0
BBX 8 8 0 0
BITMAP
1BBA7100
1FEEFD10
1F704FA0
9FC409F0
CFE508F1
1F701DC0
1FB9EF40
1FFEB400
ENDCHAR
STARTCHAR dcroat
ENCODING 273
SWIDTH 606 0
DWIDTH 7 0
BBX 7 10 0 -1
BITMAP
00000100
0000CF80
0000CF80
06CEBF20
4FB9FF20
AD008F20
AD007F20
6F97EF20
08EFAA20
00010000
ENDCHAR
STARTCHAR Emacron
ENCODING 274
SWIDTH 578 0
DWIDTH 6 0
BBX 6 9 0 0
BITMAP
00DFD0
3BCCCB
4FDDDD
4F4000
4FB970
4FEEB0
4F4000
4FA888
4FFFFF
ENDCHAR
STARTCHAR emacron
ENCODING 275
SWIDTH 524 0
DWIDTH 6 0
BBX 6 9 0 -1
BITMAP
04FF70
002210
06DE91
4FBCF5
AD3E90
ACCB10
5FF8D4
08EFB2
000100
ENDCHAR
STARTCHAR Ebreve
ENCODING 276
SWIDTH 578 0
DWIDTH 6 0
BBX 6 10 0 0
BITMAP
006430
00AE50
3BBBBB
4FDDDD
4F4000
4FB970
4FEEB0
4F4000
4FA888
4FFFFF
ENDCHAR
STARTCHAR ebreve
ENCODING 277
SWIDTH 524 0
DWIDTH 6 0
BBX 6 9 0 -1
BITMAP
015510
01DE20
06DE91
4FBCF5
AD3E90
ACCB10
5FF8D4
08EFB2
000100
ENDCHAR
STARTCHAR Edotaccent
ENCODING 278
SWIDTH 578 0
DWIDTH 6 0
BBX 6 10 0 0
BITMAP
000300
003F00
3BBBBB
4FDDDD
4F4000
4FB970
4FEEB0
4F4000
4FA888
4FFFFF
ENDCHAR
STARTCHAR edotaccent
ENCODING 279
SWIDTH 524 0
DWIDTH 6 0
BBX 6 10 0 -1
BITMAP
001200
007B00
000100
06DE91
4FBCF5
AD3E90
ACCB10
5FF8D4
08EFB2
000100
ENDCHAR
STARTCHAR Eogonek
ENCODING 280
SWIDTH 578 0
DWIDTH 6 0
BBX 6 10 0 -2
BITMAP
3BBBBB
4FDDDD
4F4000
4FB970
4FEEB0
4F4000
4FA888
4FFFFF
0002C1
0002D9
ENDCHAR
STARTCHAR eogonek
ENCODING 281
SWIDTH 524 0
DWIDTH 6 0
BBX 6 8 0 -2
BITMAP
06DE91
4FBCF5
AD3E90
ACCB10
5FF8D4
08EFC2
000E30
000BC1
ENDCHAR
STARTCHAR Ecaron
ENCODING 282
SWIDTH 578 0
DWIDTH 6 0
BBX 6 10 0 0
BITMAP
007360
008F50
3BBDBB
4FDDDD
4F4000
4FB970
4FEEB0
4F4000
4FA888
4FFFFF
ENDCHAR
STARTCHAR ecaron
ENCODING 283
SWIDTH 524 0
DWIDTH 6 0
BBX 6 10 0 -1
BITMAP
017530
01BD20
000200
06DE91
4FBCF5
AD3E90
ACCB10
5FF8D4
08EFB2
000100
ENDCHAR
STARTCHAR Gcircumflex
ENCODING 284
SWIDTH 665 0
DWIDTH 7 0
BBX 7 12 0 -1
BITMAP
00034000
002EE400
00032100
005AB810
09FECF90
4F900310
9E000000
AD0008A0
7F400AD0
1DE86DD0
02BFFE60
00012000
ENDCHAR
STARTCHAR gcircumflex
ENCODING 285
SWIDTH 607 0
DWIDTH 7 0
BBX 7 12 0 -3
BITMAP
00250000
01DE5000
00321000
05CE8610
4FB9FF20
AD008F20
AC007F20
6F97EF20
08FFEF10
0026DC00
008FC200
00220000
ENDCHAR
STARTCHAR Gbreve
ENCODING 286
SWIDTH 665 0
DWIDTH 7 0
BBX 7 11 0 -1
BITMAP
00064200
000DE300
005AB810
09FECF90
4F900310
9E000000
AD0008A0
7F400AD0
1DE86DD0
02BFFE60
00012000
ENDCHAR
STARTCHAR gbreve
ENCODING 287
SWIDTH 607 0
DWIDTH 7 0
BBX 7 12 0 -3
BITMAP
00642000
00DE3000
00000000
05CE8610
4FB9FF20
AD008F20
AC007F20
6F97EF20
08FFEF10
0026DC00
008FC200
00220000
ENDCHAR
STARTCHAR Gdotaccent
ENCODING 288
SWIDTH 665 0
DWIDTH 7 0
BBX 7 11 0 -1
BITMAP
00012000
0008A000
005AB810
09FECF90
4F900310
9E000000
AD0008A0
7F400AD0
1DE86DD0
02BFFE60
00012000
ENDCHAR
STARTCHAR gdotaccent
ENCODING 289
SWIDTH 607 0
DWIDTH 7 0
BBX 7 12 0 -3
BITMAP
00120000
007B0000
00010000
05CE8610
4FB9FF20
AD008F20
AC007F20
6F97EF20
08FFEF10
0026DC00
008FC200
00220000
ENDCHAR
STARTCHAR Gcommaaccent
ENCODING 290
SWIDTH 665 0
DWIDTH 7 0
BBX 7 11 0 -3
BITMAP
005AB810
09FECF90
4F900310
9E000000
AD0008A0
7F400AD0
1DE86DD0
02BFFE60
00046000
0007C000
00026000
ENDCHAR
STARTCHAR gcommaaccent
ENCODING 291
SWIDTH 607 0
DWIDTH 7 0
BBX 7 12 0 -3
BITMAP
00660000
008C0000
00010000
05CE8610
4FB9FF20
AD008F20
AC007F20
6F97EF20
08FFEF10
0026DC00
008FC200
00220000
ENDCHAR
STARTCHAR Hcircumflex
ENCODING 292
SWIDTH 689 0
DWIDTH 8 0
BBX 7 10 0 0
BITMAP
00052000
006ED100
3B423790
4F400AD0
4F400AD0
4FB99DD0
4FEEEFD0
4F400AD0
4F400AD0
4F400AD0
ENDCHAR
STARTCHAR hcircumflex
ENCODING 293
SWIDTH 562 0
DWIDTH 6 0
BBX 6 9 0 0
BITMAP
010610
7F7ED1
7F2130
7FBC60
7FDBF5
7F10DA
7F00CB
7F00CB
7F00CB
ENDCHAR
STARTCHAR Hbar
ENCODING 294
SWIDTH 689 0
DWIDTH 8 0
BBX 8 8 0 0
BITMAP
3B300790
AFCBBEF5
AFCBBEE4
4FB99DD0
4FEEEFD0
4F400AD0
4F400AD0
4F400AD0
ENDCHAR
STARTCHAR hbar
ENCODING 295
SWIDTH 562 0
DWIDTH 6 0
BBX 6 9 0 0
BITMAP
010000
CF6000
CF6000
7FBC60
7FDBF5
7F10DA
7F00CB
7F00CB
7F00CB
ENDCHAR
STARTCHAR Itilde
ENCODING 296
SWIDTH 270 0
DWIDTH 3 0
BBX 5 10 -1 0
BITMAP
074620
4ECF20
16B500
04F400
04F400
04F400
04F400
04F400
04F400
04F400
ENDCHAR
STARTCHAR itilde
ENCODING 297
SWIDTH 235 0
DWIDTH 3 0
BBX 4 8 -1 0
BITMAP
1838
7DDE
17C2
07F0
07F0
07F0
07F0
07F0
ENDCHAR
STARTCHAR Imacron
ENCODING 298
SWIDTH 270 0
DWIDTH 3 0
BBX 3 9 0 0
BITMAP
DFD0
4C40
4F40
4F40
4F40
4F40
4F40
4F40
4F40
ENDCHAR
STARTCHAR imacron
ENCODING 299
SWIDTH 235 0
DWIDTH 3 0
BBX 4 7 -1 0
BITMAP
1FFA
07D1
07F0
07F0
07F0
07F0
07F0
ENDCHAR
STARTCHAR Ibreve
ENCODING 300
SWIDTH 270 0
DWIDTH 3 0
BBX 3 10 0 0
BITMAP
5450
7E80
3B30
4F40
4F40
4F40
4F40
4F40
4F40
4F40
ENDCHAR
STARTCHAR ibreve
ENCODING 301
SWIDTH 235 0
DWIDTH 3 0
BBX 3 8 0 0
BITMAP
6430
AE50
5C00
7F00
7F00
7F00
7F00
7F00
ENDCHAR
STARTCHAR Iogonek
ENCODING 302
SWIDTH 270 0
DWIDTH 3 0
BBX 3 10 0 -2
BITMAP
3B30
4F40
4F40
4F40
4F40
4F40
4F40
4F40
7910
6E50
ENDCHAR
STARTCHAR iogonek
ENCODING 303
SWIDTH 235 0
DWIDTH 3 0
BBX 3 11 0 -2
BITMAP
1300
9F30
4910
5B00
7F00
7F00
7F00
7F00
7F00
8700
7D40
ENDCHAR
STARTCHAR Idotaccent
ENCODING 304
SWIDTH 270 0
DWIDTH 3 0
BBX 3 10 0 0
BITMAP
0300
2F10
3B30
4F40
4F40
4F40
4F40
4F40
4F40
4F40
ENDCHAR
STARTCHAR dotlessi
ENCODING 305
SWIDTH 235 0
DWIDTH 3 0
BBX 2 6 0 0
BITMAP
5B
7F
7F
7F
7F
7F
ENDCHAR
STARTCHAR IJ
ENCODING 306
SWIDTH 687 0
DWIDTH 8 0
BBX 7 8 0 0
BITMAP
3B3006A0
4F4009E0
4F4009E0
4F4009E0
4F4009E0
4F400CC0
4F48BF60
4F4DD700
ENDCHAR
STARTCHAR ij
ENCODING 307
SWIDTH 474 0
DWIDTH 5 0
BBX 5 12 0 -3
BITMAP
130220
9F3EC0
491760
5B0A70
7F0DA0
7F0DA0
7F0DA0
7F0DA0
7F0E90
049F50
0FF800
031000
ENDCHAR
STARTCHAR Jcircumflex
ENCODING 308
SWIDTH 416 0
DWIDTH 5 0
BBX 5 11 0 0
BITMAP
002500
01DE50
003210
006A00
009E00
009E00
009E00
009E00
00BC00
8BF700
DD7000
ENDCHAR
STARTCHAR jcircumflex
ENCODING 309
SWIDTH 237 0
DWIDTH 3 0
BBX 5 12 -2 -3
BITMAP
001600
00CD70
003120
005B10
007F10
007F10
007F10
007F10
007F00
35EB00
9FC200
220000
ENDCHAR
STARTCHAR Kcommaaccent
ENCODING 310
SWIDTH 625 0
DWIDTH 7 0
BBX 7 11 0 -3
BITMAP
3B302A60
4F40BD10
4F48F400
4F8F9000
4FFFE100
4FD5F800
4F50AE10
4F402F90
00160000
003F2000
00070000
ENDCHAR
STARTCHAR kcommaaccent
ENCODING 311
SWIDTH 539 0
DWIDTH 6 0
BBX 6 12 0 -3
BITMAP
010000
7F0000
7F0000
7F01B7
7F1BD1
7F9F30
7FFF70
7F99E1
7F12E9
004300
009A00
003400
ENDCHAR
STARTCHAR kgreenlandic
ENCODING 312
SWIDTH 539 0
DWIDTH 6 0
BBX 6 6 0 0
BITMAP
5C01B7
7F1BD1
7F9F30
7FFF70
7F99E1
7F12E9
ENDCHAR
STARTCHAR Lacute
ENCODING 313
SWIDTH 562 0
DWIDTH 6 0
BBX 7 10 0 0
BITMAP
00052000
005F7000
3B530000
4F400000
4F400000
4F400000
4F400000
4F400000
4FA88810
4FFFFF20
ENDCHAR
STARTCHAR lacute
ENCODING 314
SWIDTH 235 0
DWIDTH 3 0
BBX 4 11 0 0
BITMAP
0060
09E3
0520
7F00
7F00
7F00
7F00
7F00
7F00
7F00
7F00
ENDCHAR
STARTCHAR Lcommaaccent
ENCODING 315
SWIDTH 562 0
DWIDTH 6 0
BBX 7 11 0 -3
BITMAP
3B300000
4F400000
4F400000
4F400000
4F400000
4F400000
4FA88810
4FFFFF20
00340000
007C0000
00260000
ENDCHAR
STARTCHAR lcommaaccent
ENCODING 316
SWIDTH 235 0
DWIDTH 3 0
BBX 2 12 0 -3
BITMAP
01
7F
7F
7F
7F
7F
7F
7F
7F
15
4F
07
ENDCHAR
STARTCHAR Lcaron
ENCODING 317
SWIDTH 562 0
DWIDTH 6 0
BBX 7 8 0 0
BITMAP
3B392000
4F4C5000
4F440000
4F400000
4F400000
4F400000
4FA88810
4FFFFF20
ENDCHAR
STARTCHAR lcaron
ENCODING 318
SWIDTH 369 0
DWIDTH 4 0
BBX 4 9 0 0
BITMAP
0100
7F39
7F3E
7F15
7F00
7F00
7F00
7F00
7F00
ENDCHAR
STARTCHAR Ldot
ENCODING 319
SWIDTH 745 0
DWIDTH 8 0
BBX 8 8 0 0
BITMAP
3B300000
4F400000
4F400000
4F4000A5
4F4001E8
4F400000
4FA88810
4FFFFF20
ENDCHAR
STARTCHAR ldotaccent
ENCODING 320
SWIDTH 463 0
DWIDTH 5 0
BBX 5 9 0 0
BITMAP
010000
7F0000
7F0000
7F0000
7F1A40
7F3F70
7F0000
7F0000
7F0000
ENDCHAR
STARTCHAR Lslash
ENCODING 321
SWIDTH 585 0
DWIDTH 6 0
BBX 7 8 0 0
BITMAP
0B500000
0F800000
0F920000
1FF60000
DFA00000
7F800000
0FC88830
0FFFFF50
ENDCHAR
STARTCHAR lslash
ENCODING 322
SWIDTH 319 0
DWIDTH 4 0
BBX 4 9 0 0
BITMAP
0100
0F70
0F70
0F82
1FF6
CFA0
7F70
0F70
0F70
ENDCHAR
STARTCHAR Nacute
ENCODING 323
SWIDTH 689 0
DWIDTH 8 0
BBX 7 10 0 0
BITMAP
00006100
0007F500
3B642790
4FE20AD0
4FFA0AD0
4FAF3AD0
4F4CCAD0
4F44FED0
4F40AFD0
4F402ED0
ENDCHAR
STARTCHAR nacute
ENCODING 324
SWIDTH 562 0
DWIDTH 6 0
BBX 6 9 0 0
BITMAP
000150
001DD1
000600
56BC60
7FDBF5
7F10DA
7F00CB
7F00CB
7F00CB
ENDCHAR
STARTCHAR Ncommaaccent
ENCODING 325
SWIDTH 689 0
DWIDTH 8 0
BBX 7 11 0 -3
BITMAP
3B600790
4FE20AD0
4FFA0AD0
4FAF3AD0
4F4CCAD0
4F44FED0
4F40AFD0
4F402ED0
00052000
000C7000
00052000
ENDCHAR
STARTCHAR ncommaaccent
ENCODING 326
SWIDTH 562 0
DWIDTH 6 0
BBX 6 9 0 -3
BITMAP
56BC60
7FDBF5
7F10DA
7F00CB
7F00CB
7F00CB
003400
007C00
002600
ENDCHAR
STARTCHAR Ncaron
ENCODING 327
SWIDTH 689 0
DWIDTH 8 0
BBX 7 10 0 0
BITMAP
00447100
003EB000
3B620790
4FE20AD0
4FFA0AD0
4FAF3AD0
4F4CCAD0
4F44FED0
4F40AFD0
4F402ED0
ENDCHAR
STARTCHAR ncaron
ENCODING 328
SWIDTH 562 0
DWIDTH 6 0
BBX 6 9 0 0
BITMAP
017630
01CD20
000200
56BC60
7FDBF5
7F10DA
7F00CB
7F00CB
7F00CB
ENDCHAR
STARTCHAR napostrophe
ENCODING 329
SWIDTH 694 0
DWIDTH 8 0
BBX 8 8 0 0
BITMAP
93000000
B6000000
4188CA20
00FFAEC0
00F806F2
00F804F3
00F804F3
00F804F3
ENDCHAR
STARTCHAR Eng
ENCODING 330
SWIDTH 689 0
DWIDTH 8 0
BBX 7 11 0 -3
BITMAP
3B600790
4FE20AD0
4FFA0AD0
4FAF3AD0
4F4CCAD0
4F44FED0
4F40AFD0
4F402FC0
00069F70
000FF900
00021000
ENDCHAR
STARTCHAR eng
ENCODING 331
SWIDTH 562 0
DWIDTH 6 0
BBX 6 9 0 -3
BITMAP
56BC60
7FDBF5
7F10DA
7F00CB
7F00CB
7F00DA
0048F5
00FF80
003100
ENDCHAR
STARTCHAR Omacron
ENCODING 332
SWIDTH 777 0
DWIDTH 9 0
BBX 9 10 0 -1
BITMAP
001FFA0000
005CDA2000
09FECFE300
5F9002DD00
9E00006F20
AD00005F30
7F4000BE10
1DE86BF700
02BFFE7000
0001200000
ENDCHAR
STARTCHAR omacron
ENCODING 333
SWIDTH 579 0
DWIDTH 6 0
BBX 7 9 0 -1
BITMAP
03FF8000
00221000
06CE9100
4FB9FA00
AD008F00
AC007F10
6F97EB00
08EFB100
00010000
ENDCHAR
STARTCHAR Obreve
ENCODING 334
SWIDTH 777 0
DWIDTH 9 0
BBX 9 11 0 -1
BITMAP
0006430000
000AE50000
005AC82000
09FECFE300
5F9002DD00
9E00006F20
AD00005F30
7F4000BE10
1DE86BF700
02BFFE7000
0001200000
ENDCHAR
STARTCHAR obreve
ENCODING 335
SWIDTH 579 0
DWIDTH 6 0
BBX 7 10 0 -1
BITMAP
00743000
00CE4000
00010000
06CE9100
4FB9FA00
AD008F00
AC007F10
6F97EB00
08EFB100
00010000
ENDCHAR
STARTCHAR Ohungarumlaut
ENCODING 336
SWIDTH 777 0
DWIDTH 9 0
BBX 9 13 0 -1
BITMAP
0000100000
0009B86000
002E7E5000
0001030000
005AB82000
09FECFE300
5F9002DD00
9E00006F20
AD00005F30
7F4000BE10
1DE86BF700
02BFFE7000
0001200000
ENDCHAR
STARTCHAR ohungarumlaut
ENCODING 337
SWIDTH 579 0
DWIDTH 6 0
BBX 7 10 0 -1
BITMAP
00100000
00AA9500
03D7E400
06DEC100
4FB9FA00
AD008F00
AC007F10
6F97EB00
08EFB100
00010000
ENDCHAR
STARTCHAR OE
ENCODING 338
SWIDTH 1125 0
DWIDTH 12 0
BBX 12 9 0 -1
BITMAP
005AB84BBBBB
09FECFFFDDDD
5F9002DF4000
9E00006FB980
AD00005FEEB0
7F4000BF4000
1DE86BFFA888
02BFFEAFFFFF
000120000000
ENDCHAR
STARTCHAR oe
ENCODING 339
SWIDTH 924 0
DWIDTH 10 0
BBX 10 7 0 -1
BITMAP
06CE93BEC4
4FB9FFE9FB
AD008F4BD1
AC007FAE30
6F97EFFAB9
08EFB5DFE5
0001000100
ENDCHAR
STARTCHAR Racute
ENCODING 340
SWIDTH 651 0
DWIDTH 7 0
BBX 7 11 0 0
BITMAP
00006000
000BE200
00051000
3BBB9300
4FDDFF30
4F402EB0
4F400BD0
4F515F90
4FFFFD20
4F97EA00
4F408F20
ENDCHAR
STARTCHAR racute
ENCODING 341
SWIDTH 414 0
DWIDTH 5 0
BBX 5 9 0 0
BITMAP
001600
01CD10
006100
549B50
7FEB50
7F2000
7F0000
7F0000
7F0000
ENDCHAR
STARTCHAR Rcommaaccent
ENCODING 342
SWIDTH 651 0
DWIDTH 7 0
BBX 7 11 0 -3
BITMAP
3BBB9300
4FDDFF30
4F402EB0
4F400BD0
4F515F90
4FFFFD20
4F97EA00
4F408F20
00061000
001E4000
00071000
ENDCHAR
STARTCHAR rcommaaccent
ENCODING 343
SWIDTH 414 0
DWIDTH 5 0
BBX 5 9 0 -3
BITMAP
549B50
7FEB50
7F2000
7F0000
7F0000
7F0000
250000
5E0000
070000
ENDCHAR
STARTCHAR Rcaron
ENCODING 344
SWIDTH 651 0
DWIDTH 7 0
BBX 7 10 0 0
BITMAP
00637000
005F8000
3BBD9300
4FDDFF30
4F402EB0
4F400BD0
4F515F90
4FFFFD20
4F97EA00
4F408F20
ENDCHAR
STARTCHAR rcaron
ENCODING 345
SWIDTH 414 0
DWIDTH 5 0
BBX 5 9 0 0
BITMAP
084500
09E400
002000
549B50
7FEB50
7F2000
7F0000
7F0000
7F0000
ENDCHAR
STARTCHAR Sacute
ENCODING 346
SWIDTH 610 0
DWIDTH 7 0
BBX 7 11 0 0
BITMAP
00006000
000BE200
00051000
06ABBB10
6FDDDD10
AD000000
8FA98200
19DEFE10
00003F50
3888BF30
5FFFE700
ENDCHAR
STARTCHAR sacute
ENCODING 347
SWIDTH 523 0
DWIDTH 6 0
BBX 6 9 0 0
BITMAP
000330
003E90
001500
18BBB2
7FBBB2
8E8850
1BEEF5
4777F7
AFFFB1
ENDCHAR
STARTCHAR Scircumflex
ENCODING 348
SWIDTH 610 0
DWIDTH 7 0
BBX 7 11 0 0
BITMAP
00160000
00CD8000
00313000
06ABBB10
6FDDDD10
AD000000
8FA98200
19DEFE10
00003F50
3888BF30
5FFFE700
ENDCHAR
STARTCHAR scircumflex
ENCODING 349
SWIDTH 523 0
DWIDTH 6 0
BBX 6 9 0 0
BITMAP
005200
05ED20
012300
18BBB2
7FBBB2
8E8850
1BEEF5
4777F7
AFFFB1
ENDCHAR
STARTCHAR Scedilla
ENCODING 350
SWIDTH 610 0
DWIDTH 7 0
BBX 7 11 0 -3
BITMAP
06ABBB10
6FDDDD10
AD000000
8FA98200
19DEFE10
00003F50
3888BF30
5FFFE700
001D2000
006C7000
00361000
ENDCHAR
STARTCHAR scedilla
ENCODING 351
SWIDTH 523 0
DWIDTH 6 0
BBX 6 9 0 -3
BITMAP
18BBB2
7FBBB2
8E8850
1BEEF5
4777F7
AFFFB1
007800
019F00
006400
ENDCHAR
STARTCHAR Scaron
ENCODING 352
SWIDTH 610 0
DWIDTH 7 0
BBX 7 11 0 0
BITMAP
00745000
008F5000
00020000
06ABBB10
6FDDDD10
AD000000
8FA98200
19DEFE10
00003F50
3888BF30
5FFFE700
ENDCHAR
STARTCHAR scaron
ENCODING 353
SWIDTH 523 0
DWIDTH 6 0
BBX 6 9 0 0
BITMAP
026620
01CD20
001100
18BBB2
7FBBB2
8E8850
1BEEF5
4777F7
AFFFB1
ENDCHAR
STARTCHAR Tcommaaccent
ENCODING 354
SWIDTH 578 0
DWIDTH 6 0
BBX 7 11 0 -3
BITMAP
ABBBBB30
BDEFDD30
009E0000
009E0000
009E0000
009E0000
009E0000
009E0000
00240000
006D0000
00170000
ENDCHAR
STARTCHAR tcommaaccent
ENCODING 355
SWIDTH 437 0
DWIDTH 5 0
BBX 5 12 0 -3
BITMAP
010000
2F5000
2F5000
AFCB60
AFCB60
2F5000
1F5000
0DD740
02CF80
016000
03F200
007000
ENDCHAR
STARTCHAR Tcaron
ENCODING 356
SWIDTH 578 0
DWIDTH 6 0
BBX 7 10 0 0
BITMAP
01753000
01BE3000
ABBCBB30
BDEFDD30
009E0000
009E0000
009E0000
009E0000
009E0000
009E0000
ENDCHAR
STARTCHAR tcaron
ENCODING 357
SWIDTH 570 0
DWIDTH 6 0
BBX 7 9 0 0
BITMAP
01000000
2F501A10
2F501D30
AFCB6500
AFCB6000
2F500000
1F500000
0DD74000
02CF8000
ENDCHAR
STARTCHAR Tbar
ENCODING 358
SWIDTH 578 0
DWIDTH 6 0
BBX 7 8 0 0
BITMAP
ABBBBB30
BDEFDD30
009E0000
009E0000
07FFC000
03CF6000
009E0000
009E0000
ENDCHAR
STARTCHAR tbar
ENCODING 359
SWIDTH 437 0
DWIDTH 5 0
BBX 5 9 0 0
BITMAP
010000
2F5000
2F5000
AFCB60
AFCB60
9FC500
9FC500
0DD740
02CF80
ENDCHAR
STARTCHAR Utilde
ENCODING 360
SWIDTH 673 0
DWIDTH 7 0
BBX 7 10 0 0
BITMAP
00665400
00FBF500
4B502880
6F300BC0
6F300BC0
6F300BC0
6F300BC0
4F500DA0
0DE9CF40
02BED500
ENDCHAR
STARTCHAR utilde
ENCODING 361
SWIDTH 562 0
DWIDTH 6 0
BBX 6 9 0 -1
BITMAP
038370
0ACEB0
6D22A7
8E00D9
8E00D9
7E00D9
4F98F9
08FF99
000100
ENDCHAR
STARTCHAR Umacron
ENCODING 362
SWIDTH 673 0
DWIDTH 7 0
BBX 7 9 0 0
BITMAP
00AFF100
4B322880
6F300BC0
6F300BC0
6F300BC0
6F300BC0
4F500DA0
0DE9CF40
02BED500
ENDCHAR
STARTCHAR umacron
ENCODING 363
SWIDTH 562 0
DWIDTH 6 0
BBX 6 8 0 -1
BITMAP
04FF70
6B22A7
8E00D9
8E00D9
7E00D9
4F98F9
08FF99
000100
ENDCHAR
STARTCHAR Ubreve
ENCODING 364
SWIDTH 673 0
DWIDTH 7 0
BBX 7 10 0 0
BITMAP
00346000
004EB000
4B200880
6F300BC0
6F300BC0
6F300BC0
6F300BC0
4F500DA0
0DE9CF40
02BED500
ENDCHAR
STARTCHAR ubreve
ENCODING 365
SWIDTH 562 0
DWIDTH 6 0
BBX 6 9 0 -1
BITMAP
016510
01DE20
6B00A7
8E00D9
8E00D9
7E00D9
4F98F9
08FF99
000100
ENDCHAR
STARTCHAR Uring
ENCODING 366
SWIDTH 673 0
DWIDTH 7 0
BBX 7 10 0 0
BITMAP
001A5000
004AA000
4B241880
6F300BC0
6F300BC0
6F300BC0
6F300BC0
4F500DA0
0DE9CF40
02BED500
ENDCHAR
STARTCHAR uring
ENCODING 367
SWIDTH 562 0
DWIDTH 6 0
BBX 6 9 0 -1
BITMAP
007900
00CC10
6B23A7
8E00D9
8E00D9
7E00D9
4F98F9
08FF99
000100
ENDCHAR
STARTCHAR Uhungarumlaut
ENCODING 368
SWIDTH 673 0
DWIDTH 7 0
BBX 7 11 0 0
BITMAP
00010000
002E5B10
00A9CB10
4B203880
6F300BC0
6F300BC0
6F300BC0
6F300BC0
4F500DA0
0DE9CF40
02BED500
ENDCHAR
STARTCHAR uhungarumlaut
ENCODING 369
SWIDTH 562 0
DWIDTH 6 0
BBX 6 10 0 -1
BITMAP
001000
00B9A4
04D8E3
6B11C7
8E00D9
8E00D9
7E00D9
4F98F9
08FF99
000100
ENDCHAR
STARTCHAR Uogonek
ENCODING 370
SWIDTH 673 0
DWIDTH 7 0
BBX 7 10 0 -2
BITMAP
4B200880
6F300BC0
6F300BC0
6F300BC0
6F300BC0
4F500DB0
0DE9CF50
02BFD600
005A1000
004D7000
ENDCHAR
STARTCHAR uogonek
ENCODING 371
SWIDTH 562 0
DWIDTH 6 0
BBX 7 8 0 -2
BITMAP
6B00A700
8E00D900
8E00D900
7E00D900
4F98F900
08FF9900
00019700
00008D40
ENDCHAR
STARTCHAR Wcircumflex
ENCODING 372
SWIDTH 819 0
DWIDTH 9 0
BBX 9 12 0 -1
BITMAP
0000600000
000ADA0000
0003030000
4B23B32B40
5F34F43F50
5F34F43F50
5F34F43F50
5F34F43F50
5F34F43F50
3FABFBAF30
08FFAFF800
0000001000
ENDCHAR
STARTCHAR wcircumflex
ENCODING 373
SWIDTH 756 0
DWIDTH 8 0
BBX 8 10 0 -1
BITMAP
00025000
001DE500
00032200
6B06A079
8F08D0AC
8F08D0AC
7F08D0AC
6F7DF7DB
0AFECFD2
00100100
ENDCHAR
STARTCHAR Ycircumflex
ENCODING 374
SWIDTH 620 0
DWIDTH 7 0
BBX 7 10 0 0
BITMAP
00160000
00BD9000
79303B50
AD001F70
AD001F70
7F306F50
1DFDFB00
01AF8100
005F3000
005F3000
ENDCHAR
STARTCHAR ycircumflex
ENCODING 375
SWIDTH 562 0
DWIDTH 6 0
BBX 6 12 0 -3
BITMAP
003400
02EE40
003210
6B00A7
8E00DA
8E00DA
7E00DA
4F98FA
08FFF9
0059F4
01FF70
003100
ENDCHAR
STARTCHAR Ydieresis
ENCODING 376
SWIDTH 620 0
DWIDTH 7 0
BBX 7 10 0 0
BITMAP
00201000
03F4E000
79202B50
AD001F70
AD001F70
7F306F50
1DFDFB00
01AF8100
005F3000
005F3000
ENDCHAR
STARTCHAR Zacute
ENCODING 377
SWIDTH 586 0
DWIDTH 6 0
BBX 7 11 0 0
BITMAP
00016000
001CD100
00060000
8BBBBA10
ADDEF900
000CE100
005F8000
00DE1000
06F70000
1EF98820
7FFFFF30
ENDCHAR
STARTCHAR zacute
ENCODING 378
SWIDTH 481 0
DWIDTH 5 0
BBX 6 9 0 0
BITMAP
000510
007F50
004300
8BBB90
8BDF50
00CC00
05F300
0DD770
7FFFF1
ENDCHAR
STARTCHAR Zdotaccent
ENCODING 379
SWIDTH 586 0
DWIDTH 6 0
BBX 7 10 0 0
BITMAP
00120000
006D0000
8BBBBA10
ADDEF900
000CE100
005F8000
00DE1000
06F70000
1EF98820
7FFFFF30
ENDCHAR
STARTCHAR zdotaccent
ENCODING 380
SWIDTH 481 0
DWIDTH 5 0
BBX 6 8 0 0
BITMAP
003000
00E400
8BCB90
8BDF50
00CC00
05F300
0DD770
7FFFF1
ENDCHAR
STARTCHAR Zcaron
ENCODING 381
SWIDTH 586 0
DWIDTH 6 0
BBX 7 11 0 0
BITMAP
00744000
00AE3000
00020000
8BBBBA10
ADDEF900
000CE100
005F8000
00DE1000
06F70000
1EF98820
7FFFFF30
ENDCHAR
STARTCHAR zcaron
ENCODING 382
SWIDTH 481 0
DWIDTH 5 0
BBX 6 9 0 0
BITMAP
063700
05E900
002000
8BBB90
8BDF50
00CC00
05F300
0DD770
7FFFF1
ENDCHAR
STARTCHAR AEacute
ENCODING 508
SWIDTH 988 0
DWIDTH 11 0
BBX 11 11 0 0
BITMAP
000000430000
000004E80000
000002500000
006ABBBBBB50
0AFDDEFDDD70
3F800CC00000
5F300CE99300
6F411CFEE400
6FFFFFC00000
6F877DE88840
6F300CFFFF80
ENDCHAR
STARTCHAR aeacute
ENCODING 509
SWIDTH 976 0
DWIDTH 11 0
BBX 11 10 0 -1
BITMAP
000000510000
000006F60000
000003300000
06DE867DE910
4FB9FFFBCF50
AD008FD3E800
AC007FCDB100
6F97EFFF8D30
08FFA9AFFB10
000100001000
ENDCHAR
STARTCHAR Oslashacute
ENCODING 510
SWIDTH 777 0
DWIDTH 9 0
BBX 9 12 0 -1
BITMAP
0000150000
0001DC0000
0000600000
005AB89600
09FECFF400
5F904FED00
9E01D76F30
AD0BB05F30
7FAE20BE10
0DFB6BF700
1DDFFE7000
0001200000
ENDCHAR
STARTCHAR oslashacute
ENCODING 511
SWIDTH 579 0
DWIDTH 6 0
BBX 7 10 0 -1
BITMAP
00015000
001DC000
00060000
06CECA00
4FBCFA00
AD2ECF10
ACCA7F10
6FF7EB00
5FFFB100
00010000
ENDCHAR
STARTCHAR dotlessj
ENCODING 567
SWIDTH 237 0
DWIDTH 3 0
BBX 5 9 -2 -3
BITMAP
005B10
007F10
007F10
007F10
007F10
007F00
35EB00
9FC200
220000
ENDCHAR
STARTCHAR circumflex
ENCODING 710
SWIDTH 267 0
DWIDTH 3 0
BBX 3 3 0 5
BITMAP
0600
AD90
3030
ENDCHAR
STARTCHAR caron
ENCODING 711
SWIDTH 267 0
DWIDTH 3 0
BBX 3 3 0 5
BITMAP
7360
7F60
0200
ENDCHAR
STARTCHAR breve
ENCODING 728
SWIDTH 220 0
DWIDTH 2 0
BBX 3 3 0 5
BITMAP
7430
CE40
0100
ENDCHAR
STARTCHAR dotaccent
ENCODING 729
SWIDTH 125 0
DWIDTH 1 0
BBX 2 3 0 5
BITMAP
30
E4
10
ENDCHAR
STARTCHAR ring
ENCODING 730
SWIDTH 192 0
DWIDTH 2 0
BBX 3 3 0 5
BITMAP
8900
CC10
2300
ENDCHAR
STARTCHAR ogonek
ENCODING 731
SWIDTH 212 0
DWIDTH 2 0
BBX 3 3 0 -2
BITMAP
1300
C400
AD10
ENDCHAR
STARTCHAR tilde
ENCODING 732
SWIDTH 321 0
DWIDTH 4 0
BBX 4 3 0 5
BITMAP
6744
FBF6
3020
ENDCHAR
STARTCHAR hungarumlaut
ENCODING 733
SWIDTH 384 0
DWIDTH 4 0
BBX 4 4 0 5
BITMAP
0100
4E5A
C8D9
1030
ENDCHAR
STARTCHAR uni0312
ENCODING 786
SWIDTH 192 0
DWIDTH 2 0
BBX 2 3 0 5
BITMAP
75
9B
01
ENDCHAR
STARTCHAR uni0315
ENCODING 789
SWIDTH 132 0
DWIDTH 1 0
BBX 2 3 0 5
BITMAP
93
B6
41
ENDCHAR
STARTCHAR uni0326
ENCODING 806
SWIDTH 193 0
DWIDTH 2 0
BBX 2 3 0 -3
BITMAP
34
8B
26
ENDCHAR
STARTCHAR pi
ENCODING 960
SWIDTH 555 0
DWIDTH 6 0
BBX 6 6 0 0
BITMAP
9BBBBA
9FDDFA
0E87F0
0E87F0
0E87F0
0E87F0
ENDCHAR
STARTCHAR Wgrave
ENCODING 7808
SWIDTH 819 0
DWIDTH 9 0
BBX 9 12 0 -1
BITMAP
0006000000
004E800000
0002400000
4B23B32B40
5F34F43F50
5F34F43F50
5F34F43F50
5F34F43F50
5F34F43F50
3FABFBAF30
08FFAFF800
0000001000
ENDCHAR
STARTCHAR wgrave
ENCODING 7809
SWIDTH 756 0
DWIDTH 8 0
BBX 8 10 0 -1
BITMAP
00430000
00AE3000
00051000
6B06A079
8F08D0AC
8F08D0AC
7F08D0AC
6F7DF7DB
0AFECFD2
00100100
ENDCHAR
STARTCHAR Wacute
ENCODING 7810
SWIDTH 819 0
DWIDTH 9 0
BBX 9 12 0 -1
BITMAP
0000060000
00009E3000
0000520000
4B23B32B40
5F34F43F50
5F34F43F50
5F34F43F50
5F34F43F50
5F34F43F50
3FABFBAF30
08FFAFF800
0000001000
ENDCHAR
STARTCHAR wacute
ENCODING 7811
SWIDTH 756 0
DWIDTH 8 0
BBX 8 10 0 -1
BITMAP
00001600
0001CD10
00006100
6B06A079
8F08D0AC
8F08D0AC
7F08D0AC
6F7DF7DB
0AFECFD2
00100100
ENDCHAR
STARTCHAR Wdieresis
ENCODING 7812
SWIDTH 819 0
DWIDTH 9 0
BBX 9 11 0 -1
BITMAP
0002010000
001F4F1000
4B25B52B40
5F34F43F50
5F34F43F50
5F34F43F50
5F34F43F50
5F34F43F50
3FABFBAF30
08FFAFF800
0000001000
ENDCHAR
STARTCHAR wdieresis
ENCODING 7813
SWIDTH 756 0
DWIDTH 8 0
BBX 8 9 0 -1
BITMAP
00010100
006C7B00
6B08A179
8F08D0AC
8F08D0AC
7F08D0AC
6F7DF7DB
0AFECFD2
00100100
ENDCHAR
STARTCHAR Ygrave
ENCODING 7922
SWIDTH 620 0
DWIDTH 7 0
BBX 7 11 0 0
BITMAP
03400000
08F40000
00420000
79000B50
AD001F70
AD001F70
7F306F50
1DFDFB00
01AF8100
005F3000
005F3000
ENDCHAR
STARTCHAR ygrave
ENCODING 7923
SWIDTH 562 0
DWIDTH 6 0
BBX 6 12 0 -3
BITMAP
061000
1DC100
006000
6B00A7
8E00DA
8E00DA
7E00DA
4F98FA
08FFF9
0059F4
01FF70
003100
ENDCHAR
STARTCHAR endash
ENCODING 8211
SWIDTH 418 0
DWIDTH 5 0
BBX 4 2 0 3
BITMAP
3999
4DDC
ENDCHAR
STARTCHAR emdash
ENCODING 8212
SWIDTH 719 0
DWIDTH 8 0
BBX 8 2 0 3
BITMAP
39999992
4DDDDDD3
ENDCHAR
STARTCHAR quoteleft
ENCODING 8216
SWIDTH 246 0
DWIDTH 3 0
BBX 3 4 0 4
BITMAP
1600
6C10
7F30
0100
ENDCHAR
STARTCHAR quoteright
ENCODING 8217
SWIDTH 245 0
DWIDTH 3 0
BBX 3 3 0 5
BITMAP
4910
7F30
1C00
ENDCHAR
STARTCHAR quotesinglbase
ENCODING 8218
SWIDTH 264 0
DWIDTH 3 0
BBX 3 4 0 -2
BITMAP
1600
6F50
1D20
0300
ENDCHAR
STARTCHAR quotedblleft
ENCODING 8220
SWIDTH 445 0
DWIDTH 5 0
BBX 5 4 0 4
BITMAP
160700
6C4E20
7F6F60
010100
ENDCHAR
STARTCHAR quotedblright
ENCODING 8221
SWIDTH 444 0
DWIDTH 5 0
BBX 5 3 0 5
BITMAP
493A20
7F7F60
1C0B20
ENDCHAR
STARTCHAR quotedblbase
ENCODING 8222
SWIDTH 463 0
DWIDTH 5 0
BBX 5 4 0 -2
BITMAP
161610
6F8F80
1D2B50
030300
ENDCHAR
STARTCHAR dagger
ENCODING 8224
SWIDTH 434 0
DWIDTH 5 0
BBX 5 11 0 -2
BITMAP
05C200
06F300
8DFD50
6CFB40
06F300
06F300
06F300
06F300
06F300
06F300
011000
ENDCHAR
STARTCHAR daggerdbl
ENCODING 8225
SWIDTH 452 0
DWIDTH 5 0
BBX 5 11 0 -2
BITMAP
03C300
04F400
7DFD60
5BFB50
04F400
04F400
39F930
8FFF80
05F400
04F400
001000
ENDCHAR
STARTCHAR bullet
ENCODING 8226
SWIDTH 354 0
DWIDTH 4 0
BBX 3 4 0 2
BITMAP
0100
1ED0
1EE0
0110
ENDCHAR
STARTCHAR ellipsis
ENCODING 8230
SWIDTH 789 0
DWIDTH 9 0
BBX 9 3 0 -1
BITMAP
1602602500
6F48F39F10
1501502400
ENDCHAR
STARTCHAR perthousand
ENCODING 8240
SWIDTH 998 0
DWIDTH 11 0
BBX 11 9 0 -1
BITMAP
1BA109300000
7AB75D000000
8897D5000000
3EE8B0000000
001E7B719A10
008AC7E7BA80
01E2D3E99880
09808FB2EE30
000001000100
ENDCHAR
STARTCHAR guilsinglleft
ENCODING 8249
SWIDTH 403 0
DWIDTH 4 0
BBX 4 6 0 0
BITMAP
0023
02DB
2DC1
6F70
06F8
0067
ENDCHAR
STARTCHAR guilsinglright
ENCODING 8250
SWIDTH 402 0
DWIDTH 4 0
BBX 4 6 0 0
BITMAP
0500
4F70
06F7
02EC
3EC1
2A10
ENDCHAR
STARTCHAR fraction
ENCODING 8260
SWIDTH 477 0
DWIDTH 5 0
BBX 6 8 0 0
BITMAP
0001A1
0008A0
001E20
009800
03E100
0B7000
4D0000
C60000
ENDCHAR
STARTCHAR Euro
ENCODING 8364
SWIDTH 806 0
DWIDTH 9 0
BBX 9 9 0 -1
BITMAP
00028BA600
002EFCDF20
06CF930400
2EFEE50000
39FB810000
7CEFC00000
006FC78D10
0006EFFB20
0000021000
ENDCHAR
STARTCHAR trademark
ENCODING 8482
SWIDTH 606 0
DWIDTH 7 0
BBX 6 3 0 5
BITMAP
3A7698
080888
080888
ENDCHAR
STARTCHAR partialdiff
ENCODING 8706
SWIDTH 609 0
DWIDTH 7 0
BBX 7 10 0 -1
BITMAP
00362000
002EA000
0007F300
04BEFA00
2FC9EE00
8E105F30
8E005F30
4FA6DD00
06EFC200
00010000
ENDCHAR
STARTCHAR product
ENCODING 8719
SWIDTH 632 0
DWIDTH 7 0
BBX 7 8 0 0
BITMAP
6BBBBB60
8EFDFE70
09E0F800
09E0F800
09E0F800
09E0F800
09E0F800
09E0F800
ENDCHAR
STARTCHAR minus
ENCODING 8722
SWIDTH 543 0
DWIDTH 6 0
BBX 6 2 0 3
BITMAP
299992
3DDDD3
ENDCHAR
STARTCHAR infinity
ENCODING 8734
SWIDTH 771 0
DWIDTH 8 0
BBX 8 6 0 1
BITMAP
00100100
0BFD9FE4
5F7EF8DD
7E07F17F
3FDEFDEB
06B94BA2
ENDCHAR
STARTCHAR approxequal
ENCODING 8776
SWIDTH 476 0
DWIDTH 5 0
BBX 5 5 0 1
BITMAP
2ECB80
4E7E40
196550
4ECF70
150400
ENDCHAR
STARTCHAR notequal
ENCODING 8800
SWIDTH 512 0
DWIDTH 6 0
BBX 6 8 0 0
BITMAP
000120
000D80
5BBFC1
5BEEB1
38EB80
6FFEE1
0BA000
083000
ENDCHAR
STARTCHAR fi
ENCODING 64257
SWIDTH 650 0
DWIDTH 7 0
BBX 7 9 0 0
BITMAP
00586310
08FE9FC0
0E900850
9FDBBB70
8FCBBE90
1F600D90
1F600D90
1F600D90
1F600D90
ENDCHAR
STARTCHAR fl
ENCODING 64258
SWIDTH 631 0
DWIDTH 7 0
BBX 7 9 0 0
BITMAP
00589940
08FEDF60
0E901F60
9FDB4F60
8FCB3F60
1F601F60
1F601F60
1F601F60
1F601F60
ENDCHAR
STARTCHAR .notdef
ENCODING -1
SWIDTH 279 0
DWIDTH 3 0
BBX 1 1 0 0
BITMAP
00
ENDCHAR
STARTCHAR .null
ENCODING -1
SWIDTH 0 0
DWIDTH 0 0
BBX 1 1 0 0
BITMAP
00
ENDCHAR
STARTCHAR nonmarkingreturn
ENCODING -1
SWIDTH 279 0
DWIDTH 3 0
BBX 1 1 0 0
BITMAP
00
ENDCHAR
ENDFONT
